<svg xmlns="http://www.w3.org/2000/svg" width="600" height="196" viewBox="0 0 600 196" font-family="Liberation Sans,Arial,sans-serif" role="img" aria-label="davidrussell.co — Writing, ventures &amp; work-with-me (LIVE)"><defs><linearGradient id="pdrco" x1="0" y1="0" x2="0.4" y2="1"><stop offset="0" stop-color="#11183A"/><stop offset="1" stop-color="#0A0E1C"/></linearGradient><radialGradient id="gldrco" cx="0.82" cy="0.5" r="0.5"><stop offset="0" stop-color="#8C97FF" stop-opacity="0.20"/><stop offset="1" stop-color="#8C97FF" stop-opacity="0"/></radialGradient><radialGradient id="sddrco" cx="0.5" cy="0.5" r="0.5"><stop offset="0" stop-color="#36C28B"/><stop offset="0.5" stop-color="#36C28B" stop-opacity="0.45"/><stop offset="1" stop-color="#36C28B" stop-opacity="0"/></radialGradient><clipPath id="cldrco"><rect x="3" y="3" width="594" height="190" rx="20"/></clipPath></defs><style>@keyframes bldrco{0%,100%{opacity:1}50%{opacity:.45}}.sddrco{animation:bldrco 3.2s ease-in-out infinite}@keyframes rgdrco{0%{opacity:.15}50%{opacity:.5}100%{opacity:.15}}</style><g clip-path="url(#cldrco)"><rect x="3" y="3" width="594" height="190" rx="20" fill="url(#pdrco)"/><rect x="3" y="3" width="594" height="190" fill="url(#gldrco)"/><path d="M0,150 L0,150.0 L12,151.9 L24,153.7 L36,155.3 L48,156.6 L60,157.5 L72,157.9 L84,158.0 L96,157.5 L108,156.7 L120,155.4 L132,153.8 L144,152.1 L156,150.2 L168,148.3 L180,146.5 L192,144.9 L204,143.5 L216,142.6 L228,142.1 L240,142.0 L252,142.4 L264,143.3 L276,144.5 L288,146.0 L300,147.8 L312,149.7 L324,151.6 L336,153.4 L348,155.0 L360,156.3 L372,157.3 L384,157.9 L396,158.0 L408,157.6 L420,156.8 L432,155.7 L444,154.1 L456,152.4 L468,150.5 L480,148.6 L492,146.8 L504,145.1 L516,143.8 L528,142.7 L540,142.2 L552,142.0 L564,142.3 L576,143.1 L588,144.2 L600,145.7" fill="none" stroke="#8C97FF" stroke-width="1" opacity="0.10"/><path d="M0,168 L0,174.7 L12,175.6 L24,176.0 L36,175.9 L48,175.4 L60,174.5 L72,173.2 L84,171.6 L96,169.8 L108,167.9 L120,166.0 L132,164.2 L144,162.6 L156,161.4 L168,160.5 L180,160.1 L192,160.1 L204,160.5 L216,161.4 L228,162.7 L240,164.3 L252,166.1 L264,168.0 L276,169.9 L288,171.7 L300,173.3 L312,174.5 L324,175.4 L336,175.9 L348,176.0 L360,175.5 L372,174.7 L384,173.4 L396,171.9 L408,170.1 L420,168.2 L432,166.3 L444,164.5 L456,162.9 L468,161.6 L480,160.6 L492,160.1 L504,160.0 L516,160.4 L528,161.2 L540,162.5 L552,164.0 L564,165.7 L576,167.6 L588,169.5 L600,171.4" fill="none" stroke="#8C97FF" stroke-width="1" opacity="0.10"/><path d="M0,186 L0,193.3 L12,192.3 L24,190.9 L36,189.3 L48,187.4 L60,185.5 L72,183.6 L84,181.9 L96,180.4 L108,179.2 L120,178.4 L132,178.0 L144,178.1 L156,178.7 L168,179.6 L180,180.9 L192,182.6 L204,184.4 L216,186.3 L228,188.2 L240,190.0 L252,191.5 L264,192.7 L276,193.6 L288,194.0 L300,193.9 L312,193.4 L324,192.5 L336,191.2 L348,189.6 L360,187.8 L372,185.9 L384,184.0 L396,182.2 L408,180.6 L420,179.4 L432,178.5 L444,178.1 L456,178.1 L468,178.5 L480,179.4 L492,180.7 L504,182.3 L516,184.0 L528,185.9 L540,187.9 L552,189.6 L564,191.2 L576,192.5 L588,193.4 L600,193.9" fill="none" stroke="#8C97FF" stroke-width="1" opacity="0.10"/></g><rect x="3" y="3" width="594" height="190" rx="20" fill="none" stroke="#8C97FF" stroke-width="1.2" opacity="0.32"/><circle class="sddrco" cx="34" cy="40" r="11" fill="url(#sddrco)"/><circle cx="34" cy="40" r="4.5" fill="#36C28B"/><path transform="translate(52.00,45.00) scale(0.00610,-0.00610)" d="M211 0V1349H506V228H1122V0Z" fill="#36C28B"/><path transform="translate(61.50,45.00) scale(0.00610,-0.00610)" d="M157 1349H1073V1121H762V228H1073V0H157V228H468V1121H157Z" fill="#36C28B"/><path transform="translate(71.00,45.00) scale(0.00610,-0.00610)" d="M766 0H467L3 1349H311L544 574Q558 529 571 482Q584 435 595 396Q607 350 618 308Q628 349 639 394Q649 432 662 480Q676 527 690 574L922 1349H1227Z" fill="#36C28B"/><path transform="translate(80.50,45.00) scale(0.00610,-0.00610)" d="M137 0V1349H1105V1121H432V797H1044V569H432V228H1146V0Z" fill="#36C28B"/><path transform="translate(427.48,45.00) scale(0.00610,-0.00610)" d="M237 0V1349H428V156H1100V0Z" fill="#737EA6"/><path transform="translate(436.98,45.00) scale(0.00610,-0.00610)" d="M202 1349H1025V1193H709V156H1025V0H202V156H518V1193H202Z" fill="#737EA6"/><path transform="translate(446.48,45.00) scale(0.00610,-0.00610)" d="M713 0H515L10 1349H211L531 447Q547 402 562 354Q576 305 588 263Q602 215 615 168Q627 213 641 261Q653 302 668 351Q683 400 699 447L1017 1349H1218Z" fill="#737EA6"/><path transform="translate(455.99,45.00) scale(0.00610,-0.00610)" d="M162 0V1349H1081V1193H353V771H1021V617H353V156H1122V0Z" fill="#737EA6"/><path transform="translate(474.99,45.00) scale(0.00610,-0.00610)" d="M496 420V719H731V420Z" fill="#737EA6"/><path transform="translate(493.99,45.00) scale(0.00610,-0.00610)" d="M365 1082V396Q365 317 376 264Q388 211 414 178Q441 146 484 132Q526 119 589 119Q653 119 704 142Q756 164 792 206Q829 249 848 312Q868 374 868 455V1082H1049V231Q1049 197 1050 160Q1050 122 1051 88Q1052 55 1053 31Q1054 7 1055 0H885Q884 5 883 27Q882 49 880 78Q879 106 878 136Q877 165 877 185H874Q848 138 817 100Q786 62 745 36Q704 9 651 -6Q598 -20 528 -20Q438 -20 373 2Q308 24 266 70Q224 116 204 188Q185 261 185 361V1082Z" fill="#737EA6"/><path transform="translate(503.49,45.00) scale(0.00610,-0.00610)" d="M531 0V686Q531 765 525 818Q519 871 506 904Q492 936 470 950Q449 963 417 963Q384 963 358 938Q332 912 313 866Q294 819 284 754Q274 688 274 607V0H105V851Q105 885 104 922Q104 960 103 994Q102 1027 101 1051Q100 1075 99 1082H248Q249 1077 250 1056Q251 1036 252 1010Q253 983 254 955Q254 927 254 907H256Q269 946 287 982Q305 1017 330 1044Q356 1071 391 1086Q426 1102 472 1102Q560 1102 604 1054Q647 1006 666 906H668Q686 953 708 990Q729 1026 757 1051Q785 1076 821 1089Q857 1102 904 1102Q965 1102 1007 1080Q1049 1058 1075 1012Q1101 966 1112 894Q1124 822 1124 721V0H956V686Q956 765 950 818Q944 871 930 904Q917 936 896 950Q874 963 842 963Q776 963 738 879Q699 795 699 627V0Z" fill="#737EA6"/><path transform="translate(512.99,45.00) scale(0.00610,-0.00610)" d="M1090 546Q1090 262 988 121Q887 -20 698 -20Q582 -20 497 23Q412 66 364 164H362Q362 138 361 110Q360 83 358 60Q357 37 356 20Q354 4 353 0H179Q180 9 181 30Q182 52 183 82Q184 112 184 148Q185 184 185 223V1484H365V1061Q365 1032 364 1004Q364 975 363 953Q362 927 361 904H365Q413 1009 498 1056Q582 1104 699 1104Q894 1104 992 966Q1090 827 1090 546ZM904 540Q904 652 889 732Q874 813 842 864Q811 916 764 940Q716 965 650 965Q584 965 531 942Q478 920 442 868Q405 817 385 732Q365 648 365 524Q365 405 385 326Q405 247 442 200Q478 152 530 132Q583 113 648 113Q711 113 759 136Q807 159 839 210Q871 261 888 342Q904 424 904 540Z" fill="#737EA6"/><path transform="translate(522.49,45.00) scale(0.00610,-0.00610)" d="M1045 918Q998 926 946 932Q895 937 833 937Q749 937 682 903Q615 869 569 810Q523 752 498 674Q474 596 474 508V0H294V701Q294 757 288 815Q282 873 274 924Q266 976 257 1017Q248 1058 242 1082H413Q420 1058 428 1027Q435 996 442 962Q449 929 454 895Q459 861 461 832H466Q494 894 525 944Q556 994 598 1029Q641 1064 699 1083Q757 1102 839 1102Q895 1102 949 1097Q1003 1092 1045 1085Z" fill="#737EA6"/><path transform="translate(532.00,45.00) scale(0.00610,-0.00610)" d="M322 503Q322 418 341 346Q360 275 398 224Q436 172 492 144Q549 115 623 115Q678 115 724 128Q771 140 808 162Q845 184 870 214Q895 245 907 281L1065 236Q1049 191 1017 146Q985 100 932 64Q879 27 803 4Q727 -20 623 -20Q508 -20 417 16Q326 52 263 123Q200 194 166 300Q133 407 133 548Q133 704 172 810Q212 916 279 981Q346 1046 434 1074Q521 1102 617 1102Q748 1102 838 1060Q929 1018 986 942Q1043 867 1068 761Q1094 655 1094 527V503ZM619 969Q573 969 522 954Q472 940 429 903Q386 866 356 802Q327 739 324 641H908Q900 735 874 798Q848 861 810 899Q771 937 722 953Q673 969 619 969Z" fill="#737EA6"/><path transform="translate(541.50,45.00) scale(0.00610,-0.00610)" d="M736 142H1116V0H134V142H556V1342H267V1484H736Z" fill="#737EA6"/><path transform="translate(551.00,45.00) scale(0.00610,-0.00610)" d="M736 142H1116V0H134V142H556V1342H267V1484H736Z" fill="#737EA6"/><path transform="translate(560.50,45.00) scale(0.00610,-0.00610)" d="M1101 111Q1116 111 1131 113Q1146 115 1160 118V6Q1126 -2 1092 -6Q1059 -10 1021 -10Q970 -10 934 4Q897 17 874 44Q851 72 839 112Q827 153 824 207H818Q790 155 756 113Q722 71 678 42Q634 12 577 -4Q520 -20 446 -20Q288 -20 208 66Q128 152 128 302Q128 409 168 478Q207 546 271 585Q335 624 416 640Q498 655 582 656L818 660V719Q818 786 804 833Q791 880 764 909Q736 938 694 952Q652 965 596 965Q546 965 506 958Q465 950 436 930Q407 911 388 878Q370 844 364 793L176 810Q186 874 214 928Q241 981 291 1020Q341 1059 416 1080Q492 1102 599 1102Q799 1102 900 1008Q1000 915 1000 738V272Q1000 192 1021 152Q1042 111 1101 111ZM492 117Q575 117 636 148Q697 180 738 228Q778 276 798 334Q818 392 818 445V534L628 530Q573 529 518 522Q462 514 418 490Q373 466 345 420Q317 375 317 299Q317 217 362 167Q406 117 492 117Z" fill="#737EA6"/><circle cx="508" cy="104" r="24" fill="none" stroke="#8C97FF" stroke-width="1.3" opacity="0.5"/><circle cx="508" cy="104" r="13.9" fill="none" stroke="#8C97FF" stroke-width="1" opacity="0.3"/><line x1="484" y1="104" x2="532" y2="104" stroke="#8C97FF" stroke-width="1" opacity="0.16"/><line x1="508" y1="80" x2="508" y2="128" stroke="#8C97FF" stroke-width="1" opacity="0.16"/><g><path d="M508,104 L532,104 A24,24 0 0 1 525.3,121.3 Z" fill="#8C97FF" opacity="0.20"/><line x1="508" y1="104" x2="532" y2="104" stroke="#8C97FF" stroke-width="1.5" opacity="0.7"/><animateTransform attributeName="transform" type="rotate" from="0 508 104" to="360 508 104" dur="4.5s" repeatCount="indefinite"/></g><circle cx="520.0" cy="93.9" r="2.6" fill="#8C97FF"><animate attributeName="opacity" values="0.15;1;0.15" dur="4.5s" repeatCount="indefinite"/></circle><circle cx="508" cy="104" r="2" fill="#8C97FF"/><path transform="translate(32.00,112.00) scale(0.01611,-0.01611)" d="M844 0Q842 8 840 28Q837 49 834 75Q832 101 830 128Q829 155 829 176H825Q776 71 688 26Q601 -20 479 -20Q377 -20 302 22Q228 64 180 139Q131 214 108 316Q84 419 84 540Q84 663 108 766Q133 869 184 944Q235 1018 314 1060Q392 1102 500 1102Q553 1102 602 1091Q651 1080 693 1057Q735 1034 769 998Q803 962 827 911H829Q829 921 828 940Q828 960 828 985Q828 1010 828 1037Q827 1064 827 1089V1484H1108V236Q1108 157 1111 96Q1114 34 1116 0ZM831 547Q831 654 811 724Q791 795 758 836Q726 878 684 894Q643 911 600 911Q546 911 504 890Q463 869 434 824Q406 779 392 709Q377 639 377 540Q377 172 598 172Q640 172 682 190Q724 208 757 251Q790 294 810 366Q831 439 831 547Z" fill="#F6F1E6"/><path transform="translate(50.96,112.00) scale(0.01611,-0.01611)" d="M393 -20Q315 -20 254 2Q192 23 149 64Q106 106 83 167Q60 228 60 306Q60 402 94 468Q127 533 185 574Q243 614 321 632Q399 651 487 652L720 656V711Q720 770 710 810Q699 849 679 874Q659 899 630 910Q600 920 562 920Q527 920 500 913Q472 906 452 888Q432 871 420 842Q407 812 402 767L109 781Q121 852 153 910Q185 969 242 1012Q298 1055 380 1078Q463 1102 574 1102Q675 1102 754 1077Q833 1052 888 1002Q943 953 972 881Q1001 809 1001 714V320Q1001 282 1004 252Q1008 222 1018 202Q1027 181 1044 170Q1062 160 1090 160Q1122 160 1152 166V14Q1127 8 1107 3Q1087 -2 1067 -5Q1047 -8 1024 -10Q1002 -12 972 -12Q866 -12 816 40Q765 92 755 193H749Q693 92 606 36Q518 -20 393 -20ZM720 501 576 499Q531 497 490 492Q450 486 420 468Q389 451 371 418Q353 385 353 328Q353 251 388 214Q424 176 483 176Q537 176 581 199Q625 222 656 260Q686 297 703 346Q720 395 720 446Z" fill="#F6F1E6"/><path transform="translate(68.11,112.00) scale(0.01611,-0.01611)" d="M565 227 836 1082H1130L731 0H395L8 1082H305Z" fill="#F6F1E6"/><path transform="translate(85.26,112.00) scale(0.01611,-0.01611)" d="M143 1277V1484H424V1277ZM143 0V1082H424V0Z" fill="#F6F1E6"/><path transform="translate(93.23,112.00) scale(0.01611,-0.01611)" d="M844 0Q842 8 840 28Q837 49 834 75Q832 101 830 128Q829 155 829 176H825Q776 71 688 26Q601 -20 479 -20Q377 -20 302 22Q228 64 180 139Q131 214 108 316Q84 419 84 540Q84 663 108 766Q133 869 184 944Q235 1018 314 1060Q392 1102 500 1102Q553 1102 602 1091Q651 1080 693 1057Q735 1034 769 998Q803 962 827 911H829Q829 921 828 940Q828 960 828 985Q828 1010 828 1037Q827 1064 827 1089V1484H1108V236Q1108 157 1111 96Q1114 34 1116 0ZM831 547Q831 654 811 724Q791 795 758 836Q726 878 684 894Q643 911 600 911Q546 911 504 890Q463 869 434 824Q406 779 392 709Q377 639 377 540Q377 172 598 172Q640 172 682 190Q724 208 757 251Q790 294 810 366Q831 439 831 547Z" fill="#F6F1E6"/><path transform="translate(112.19,112.00) scale(0.01611,-0.01611)" d="M143 0V828Q143 863 142 902Q142 941 140 976Q139 1012 138 1040Q137 1069 135 1082H403Q405 1070 407 1040Q409 1011 411 976Q413 941 414 906Q416 872 416 851H420Q441 910 462 956Q483 1003 512 1036Q540 1068 580 1086Q620 1103 679 1103Q704 1103 728 1098Q753 1094 766 1088V853Q739 859 712 864Q684 868 646 868Q541 868 482 783Q424 698 424 531V0Z" fill="#F6F1E6"/><path transform="translate(123.83,112.00) scale(0.01611,-0.01611)" d="M408 1082V475Q408 412 418 360Q428 307 451 270Q474 232 510 211Q547 190 600 190Q651 190 692 212Q734 235 764 276Q794 318 810 376Q827 433 827 502V1082H1108V242Q1108 208 1108 170Q1109 133 1110 100Q1112 66 1114 40Q1115 13 1116 0H848Q847 12 844 38Q842 65 840 97Q839 129 838 161Q836 193 836 215H831Q775 92 688 36Q602 -20 483 -20Q386 -20 318 12Q250 44 208 100Q165 155 146 231Q127 307 127 395V1082Z" fill="#F6F1E6"/><path transform="translate(142.79,112.00) scale(0.01611,-0.01611)" d="M1055 316Q1055 238 1022 176Q990 114 928 70Q866 27 776 4Q686 -20 571 -20Q468 -20 385 -5Q302 10 240 44Q177 79 135 134Q93 189 72 270L319 307Q331 262 352 234Q373 206 404 191Q435 176 476 171Q518 166 571 166Q619 166 660 172Q702 177 732 190Q763 204 780 228Q797 253 797 290Q797 332 772 356Q748 381 706 396Q663 412 606 424Q548 435 483 450Q415 465 349 486Q283 507 231 543Q179 579 147 634Q115 690 115 775Q115 852 145 912Q175 973 233 1016Q291 1058 376 1080Q462 1103 573 1103Q661 1103 737 1086Q813 1070 873 1034Q933 999 974 944Q1014 889 1030 811L781 785Q774 824 756 850Q738 875 712 890Q685 905 650 910Q615 916 573 916Q473 916 423 890Q373 865 373 805Q373 768 394 746Q414 724 452 710Q489 695 540 684Q592 674 653 659Q728 643 800 622Q873 600 930 562Q986 525 1020 466Q1055 407 1055 316Z" fill="#F6F1E6"/><path transform="translate(159.94,112.00) scale(0.01611,-0.01611)" d="M1055 316Q1055 238 1022 176Q990 114 928 70Q866 27 776 4Q686 -20 571 -20Q468 -20 385 -5Q302 10 240 44Q177 79 135 134Q93 189 72 270L319 307Q331 262 352 234Q373 206 404 191Q435 176 476 171Q518 166 571 166Q619 166 660 172Q702 177 732 190Q763 204 780 228Q797 253 797 290Q797 332 772 356Q748 381 706 396Q663 412 606 424Q548 435 483 450Q415 465 349 486Q283 507 231 543Q179 579 147 634Q115 690 115 775Q115 852 145 912Q175 973 233 1016Q291 1058 376 1080Q462 1103 573 1103Q661 1103 737 1086Q813 1070 873 1034Q933 999 974 944Q1014 889 1030 811L781 785Q774 824 756 850Q738 875 712 890Q685 905 650 910Q615 916 573 916Q473 916 423 890Q373 865 373 805Q373 768 394 746Q414 724 452 710Q489 695 540 684Q592 674 653 659Q728 643 800 622Q873 600 930 562Q986 525 1020 466Q1055 407 1055 316Z" fill="#F6F1E6"/><path transform="translate(177.10,112.00) scale(0.01611,-0.01611)" d="M586 -20Q469 -20 376 14Q282 49 216 120Q150 190 115 296Q80 403 80 546Q80 701 122 807Q163 913 234 978Q304 1044 396 1073Q488 1102 590 1102Q718 1102 808 1058Q899 1013 957 933Q1015 853 1042 742Q1069 630 1069 495V487H375Q375 419 387 360Q399 302 426 260Q453 217 496 192Q539 168 600 168Q674 168 721 200Q768 231 788 297L1053 274Q1035 228 1002 176Q970 124 916 80Q862 37 782 8Q701 -20 586 -20ZM586 925Q543 925 506 910Q468 896 440 864Q413 833 396 783Q379 733 377 663H797Q789 794 734 860Q679 925 586 925Z" fill="#F6F1E6"/><path transform="translate(194.25,112.00) scale(0.01611,-0.01611)" d="M143 0V1484H424V0Z" fill="#F6F1E6"/><path transform="translate(202.22,112.00) scale(0.01611,-0.01611)" d="M143 0V1484H424V0Z" fill="#F6F1E6"/><path transform="translate(210.19,112.00) scale(0.01611,-0.01611)" d="M139 0V305H428V0Z" fill="#F6F1E6"/><path transform="translate(218.15,112.00) scale(0.01611,-0.01611)" d="M594 -20Q465 -20 368 20Q272 60 208 133Q144 206 112 308Q80 411 80 535Q80 670 115 776Q150 881 216 954Q282 1026 378 1064Q475 1102 598 1102Q703 1102 784 1074Q866 1046 925 998Q984 949 1020 883Q1057 817 1071 741L788 727Q776 810 728 860Q680 909 592 909Q479 909 427 816Q375 723 375 546Q375 172 596 172Q676 172 730 222Q784 273 797 373L1079 360Q1069 285 1034 216Q998 148 938 96Q877 43 791 12Q705 -20 594 -20Z" fill="#F6F1E6"/><path transform="translate(235.31,112.00) scale(0.01611,-0.01611)" d="M1171 542Q1171 418 1136 315Q1102 212 1033 138Q964 63 861 22Q758 -20 621 -20Q489 -20 388 21Q287 62 218 136Q150 210 115 314Q80 417 80 542Q80 663 114 766Q147 868 215 943Q283 1018 386 1060Q489 1102 627 1102Q773 1102 876 1060Q979 1018 1044 944Q1110 869 1140 766Q1171 664 1171 542ZM877 542Q877 735 814 822Q751 909 631 909Q507 909 441 821Q375 733 375 542Q375 445 392 375Q410 305 442 260Q474 215 519 194Q564 172 618 172Q680 172 728 194Q777 215 810 260Q843 305 860 375Q877 445 877 542Z" fill="#F6F1E6"/><path transform="translate(32.00,142.00) scale(0.00757,-0.00757)" d="M1511 0H1283L1039 895Q1028 933 1016 985Q1003 1037 993 1084Q981 1139 969 1196Q956 1138 944 1083Q933 1035 921 984Q909 933 898 895L652 0H424L9 1409H208L461 514Q478 451 494 389Q509 327 520 278Q533 220 544 168Q559 237 575 304Q582 332 589 363Q596 394 604 424Q611 454 618 482Q626 509 632 532L877 1409H1060L1305 532Q1311 509 1318 482Q1326 454 1334 424Q1341 395 1348 364Q1355 333 1362 305Q1378 238 1393 168Q1394 168 1402 202Q1410 237 1422 289Q1434 341 1448 402Q1463 462 1478 514L1727 1409H1926Z" fill="#AEB6D4"/><path transform="translate(46.63,142.00) scale(0.00757,-0.00757)" d="M142 0V830Q142 864 142 900Q141 935 140 968Q139 1001 138 1030Q137 1059 136 1082H306Q307 1059 308 1030Q310 1000 312 969Q313 938 314 910Q314 881 314 861H318Q337 923 358 968Q380 1014 409 1044Q438 1073 478 1088Q518 1102 575 1102Q597 1102 617 1098Q637 1095 648 1092V927Q630 932 606 934Q582 937 552 937Q490 937 446 909Q403 881 376 832Q348 782 335 714Q322 645 322 564V0Z" fill="#AEB6D4"/><path transform="translate(51.79,142.00) scale(0.00757,-0.00757)" d="M137 1312V1484H317V1312ZM137 0V1082H317V0Z" fill="#AEB6D4"/><path transform="translate(55.23,142.00) scale(0.00757,-0.00757)" d="M554 8Q513 -3 470 -10Q428 -16 372 -16Q156 -16 156 229V951H31V1082H163L216 1324H336V1082H536V951H336V268Q336 190 362 158Q387 127 450 127Q476 127 500 131Q525 135 554 141Z" fill="#AEB6D4"/><path transform="translate(59.54,142.00) scale(0.00757,-0.00757)" d="M137 1312V1484H317V1312ZM137 0V1082H317V0Z" fill="#AEB6D4"/><path transform="translate(62.98,142.00) scale(0.00757,-0.00757)" d="M825 0V686Q825 765 814 818Q802 871 776 904Q750 936 708 950Q665 963 602 963Q538 963 486 940Q435 918 398 876Q362 833 342 770Q322 708 322 627V0H142V851Q142 885 142 922Q141 960 140 994Q139 1027 138 1051Q137 1075 136 1082H306Q307 1077 308 1055Q309 1033 310 1004Q312 976 313 946Q314 917 314 897H317Q343 944 374 982Q405 1020 446 1046Q487 1073 540 1088Q593 1102 663 1102Q753 1102 818 1080Q883 1058 925 1012Q967 966 986 894Q1006 821 1006 721V0Z" fill="#AEB6D4"/><path transform="translate(71.61,142.00) scale(0.00757,-0.00757)" d="M548 -425Q455 -425 383 -406Q311 -387 260 -352Q209 -316 177 -267Q145 -218 131 -158L312 -132Q330 -207 392 -248Q453 -288 553 -288Q614 -288 664 -271Q714 -254 749 -216Q784 -179 803 -119Q822 -59 822 27V201H820Q800 160 770 122Q741 85 698 56Q656 27 600 10Q544 -8 472 -8Q369 -8 296 26Q222 61 176 130Q129 199 108 302Q86 404 86 539Q86 669 108 773Q129 877 178 950Q226 1022 304 1060Q381 1099 492 1099Q607 1099 692 1046Q776 994 822 897H824Q824 922 826 953Q827 984 828 1012Q830 1039 832 1059Q834 1079 836 1082H1007Q1006 1073 1005 1052Q1004 1030 1003 1000Q1002 970 1002 934Q1001 897 1001 858V31Q1001 -196 890 -310Q778 -425 548 -425ZM822 541Q822 654 798 734Q773 815 733 866Q693 917 642 941Q590 965 536 965Q467 965 418 941Q368 917 336 866Q303 814 288 734Q272 653 272 541Q272 424 288 344Q303 265 335 216Q367 167 416 146Q465 125 533 125Q587 125 638 148Q690 171 731 221Q772 271 797 350Q822 429 822 541Z" fill="#AEB6D4"/><path transform="translate(80.23,142.00) scale(0.00757,-0.00757)" d="M385 219V51Q385 -2 380 -46Q376 -89 366 -126Q356 -164 342 -197Q327 -230 307 -262H184Q229 -197 254 -131Q278 -65 278 0H190V219Z" fill="#AEB6D4"/><path transform="translate(88.84,142.00) scale(0.00757,-0.00757)" d="M613 0H400L7 1082H199L437 378Q444 356 454 324Q463 293 473 259Q483 225 492 194Q500 162 506 141Q512 162 522 194Q531 225 541 258Q551 291 562 322Q572 354 580 376L826 1082H1017Z" fill="#AEB6D4"/><path transform="translate(96.59,142.00) scale(0.00757,-0.00757)" d="M276 503Q276 418 294 346Q311 275 348 224Q384 172 441 144Q498 115 578 115Q695 115 766 162Q836 209 861 281L1019 236Q1002 191 972 146Q941 100 890 64Q839 27 762 4Q686 -20 578 -20Q338 -20 212 123Q87 266 87 548Q87 700 125 806Q163 911 229 977Q295 1043 383 1072Q471 1102 571 1102Q707 1102 798 1058Q890 1014 946 936Q1001 859 1024 754Q1048 649 1048 527V503ZM862 641Q847 812 775 890Q703 969 568 969Q523 969 474 954Q424 940 382 903Q340 866 311 802Q282 739 278 641Z" fill="#AEB6D4"/><path transform="translate(105.21,142.00) scale(0.00757,-0.00757)" d="M825 0V686Q825 765 814 818Q802 871 776 904Q750 936 708 950Q665 963 602 963Q538 963 486 940Q435 918 398 876Q362 833 342 770Q322 708 322 627V0H142V851Q142 885 142 922Q141 960 140 994Q139 1027 138 1051Q137 1075 136 1082H306Q307 1077 308 1055Q309 1033 310 1004Q312 976 313 946Q314 917 314 897H317Q343 944 374 982Q405 1020 446 1046Q487 1073 540 1088Q593 1102 663 1102Q753 1102 818 1080Q883 1058 925 1012Q967 966 986 894Q1006 821 1006 721V0Z" fill="#AEB6D4"/><path transform="translate(113.83,142.00) scale(0.00757,-0.00757)" d="M554 8Q513 -3 470 -10Q428 -16 372 -16Q156 -16 156 229V951H31V1082H163L216 1324H336V1082H536V951H336V268Q336 190 362 158Q387 127 450 127Q476 127 500 131Q525 135 554 141Z" fill="#AEB6D4"/><path transform="translate(118.14,142.00) scale(0.00757,-0.00757)" d="M314 1082V396Q314 317 326 264Q337 211 363 178Q389 146 432 132Q474 119 537 119Q601 119 652 142Q704 164 740 206Q777 249 797 312Q817 374 817 455V1082H997V231Q997 197 998 160Q998 122 999 88Q1000 55 1001 31Q1002 7 1003 0H833Q832 5 831 27Q830 49 828 78Q827 106 826 136Q825 165 825 185H822Q796 138 765 100Q734 62 693 36Q652 9 599 -6Q546 -20 476 -20Q386 -20 321 2Q256 24 214 70Q172 116 152 188Q133 260 133 361V1082Z" fill="#AEB6D4"/><path transform="translate(126.76,142.00) scale(0.00757,-0.00757)" d="M142 0V830Q142 864 142 900Q141 935 140 968Q139 1001 138 1030Q137 1059 136 1082H306Q307 1059 308 1030Q310 1000 312 969Q313 938 314 910Q314 881 314 861H318Q337 923 358 968Q380 1014 409 1044Q438 1073 478 1088Q518 1102 575 1102Q597 1102 617 1098Q637 1095 648 1092V927Q630 932 606 934Q582 937 552 937Q490 937 446 909Q403 881 376 832Q348 782 335 714Q322 645 322 564V0Z" fill="#AEB6D4"/><path transform="translate(131.92,142.00) scale(0.00757,-0.00757)" d="M276 503Q276 418 294 346Q311 275 348 224Q384 172 441 144Q498 115 578 115Q695 115 766 162Q836 209 861 281L1019 236Q1002 191 972 146Q941 100 890 64Q839 27 762 4Q686 -20 578 -20Q338 -20 212 123Q87 266 87 548Q87 700 125 806Q163 911 229 977Q295 1043 383 1072Q471 1102 571 1102Q707 1102 798 1058Q890 1014 946 936Q1001 859 1024 754Q1048 649 1048 527V503ZM862 641Q847 812 775 890Q703 969 568 969Q523 969 474 954Q424 940 382 903Q340 866 311 802Q282 739 278 641Z" fill="#AEB6D4"/><path transform="translate(140.54,142.00) scale(0.00757,-0.00757)" d="M950 299Q950 223 920 164Q891 104 835 64Q779 23 698 2Q616 -20 511 -20Q417 -20 342 -6Q266 9 209 41Q152 73 114 126Q75 178 57 254L216 285Q239 198 311 158Q383 117 511 117Q569 117 618 125Q666 133 701 152Q736 172 756 204Q775 237 775 285Q775 334 752 366Q729 397 688 418Q647 439 588 454Q530 470 460 489Q395 506 331 527Q267 548 216 582Q164 617 132 668Q100 719 100 796Q100 944 206 1022Q311 1099 513 1099Q692 1099 798 1036Q903 973 931 834L769 814Q760 856 736 884Q712 913 678 930Q644 948 602 956Q559 963 513 963Q391 963 333 926Q275 889 275 814Q275 770 296 742Q318 713 356 694Q395 674 449 660Q503 645 568 629Q611 618 656 606Q701 593 744 576Q786 558 824 534Q861 511 889 478Q917 445 934 401Q950 357 950 299Z" fill="#AEB6D4"/><path transform="translate(152.59,142.00) scale(0.00757,-0.00757)" d="M1193 -12Q1097 -12 1025 21Q953 54 895 115Q865 89 827 65Q789 41 742 22Q696 3 642 -8Q587 -20 523 -20Q406 -20 320 10Q235 40 180 92Q125 145 98 216Q72 288 72 371Q72 450 98 514Q123 579 168 632Q214 684 277 726Q340 767 415 800Q397 834 382 872Q368 911 357 950Q346 989 340 1028Q334 1067 334 1102Q334 1168 354 1226Q374 1283 416 1326Q459 1368 526 1392Q592 1417 685 1417Q758 1417 820 1398Q881 1379 926 1343Q971 1307 996 1254Q1021 1201 1021 1133Q1021 1058 988 1000Q955 941 899 895Q843 849 769 812Q695 774 612 741Q674 627 747 526Q820 426 905 329Q966 419 1006 518Q1047 618 1076 739L1221 696Q1186 557 1132 444Q1079 330 1009 227Q1062 173 1115 151Q1168 129 1217 129Q1249 129 1278 132Q1308 136 1334 145V10Q1306 -1 1268 -6Q1231 -12 1193 -12ZM869 1133Q869 1170 856 1200Q842 1230 818 1252Q794 1273 760 1284Q725 1296 683 1296Q587 1296 537 1244Q487 1193 487 1102Q487 1043 506 978Q524 914 552 858Q617 884 675 912Q733 939 776 972Q819 1004 844 1044Q869 1083 869 1133ZM795 217Q706 322 624 437Q542 552 476 674Q363 626 302 552Q240 478 240 373Q240 318 258 270Q275 223 311 188Q347 152 402 132Q456 111 529 111Q573 111 612 120Q652 130 686 145Q720 160 748 179Q775 198 795 217Z" fill="#AEB6D4"/><path transform="translate(167.24,142.00) scale(0.00757,-0.00757)" d="M1174 0H965L792 698Q784 725 776 765Q767 805 759 843Q749 887 740 934Q731 889 721 845Q713 807 704 766Q694 725 686 694L508 0H300L-3 1082H175L358 347Q365 324 372 290Q379 257 386 225Q393 188 401 149Q409 187 418 223Q426 254 434 286Q442 318 448 339L644 1082H837L1026 339Q1033 313 1041 280Q1049 247 1056 218Q1064 184 1072 149Q1080 187 1088 223Q1095 254 1102 288Q1110 321 1117 347L1308 1082H1484Z" fill="#AEB6D4"/><path transform="translate(178.43,142.00) scale(0.00757,-0.00757)" d="M1053 542Q1053 258 928 119Q803 -20 565 -20Q452 -20 363 14Q274 48 212 118Q151 188 118 294Q86 399 86 542Q86 1102 571 1102Q697 1102 788 1067Q880 1032 938 962Q997 892 1025 787Q1053 682 1053 542ZM864 542Q864 668 844 750Q825 832 788 881Q750 930 696 950Q642 969 574 969Q505 969 450 948Q394 928 355 878Q316 829 296 747Q275 665 275 542Q275 416 297 334Q319 251 358 202Q396 153 448 133Q501 113 563 113Q632 113 688 132Q744 152 783 201Q822 250 843 333Q864 416 864 542Z" fill="#AEB6D4"/><path transform="translate(187.05,142.00) scale(0.00757,-0.00757)" d="M142 0V830Q142 864 142 900Q141 935 140 968Q139 1001 138 1030Q137 1059 136 1082H306Q307 1059 308 1030Q310 1000 312 969Q313 938 314 910Q314 881 314 861H318Q337 923 358 968Q380 1014 409 1044Q438 1073 478 1088Q518 1102 575 1102Q597 1102 617 1098Q637 1095 648 1092V927Q630 932 606 934Q582 937 552 937Q490 937 446 909Q403 881 376 832Q348 782 335 714Q322 645 322 564V0Z" fill="#AEB6D4"/><path transform="translate(192.21,142.00) scale(0.00757,-0.00757)" d="M816 0 450 494 318 385V0H138V1484H318V557L793 1082H1004L565 617L1027 0Z" fill="#AEB6D4"/><path transform="translate(199.96,142.00) scale(0.00757,-0.00757)" d="M91 464V624H591V464Z" fill="#AEB6D4"/><path transform="translate(205.13,142.00) scale(0.00757,-0.00757)" d="M1174 0H965L792 698Q784 725 776 765Q767 805 759 843Q749 887 740 934Q731 889 721 845Q713 807 704 766Q694 725 686 694L508 0H300L-3 1082H175L358 347Q365 324 372 290Q379 257 386 225Q393 188 401 149Q409 187 418 223Q426 254 434 286Q442 318 448 339L644 1082H837L1026 339Q1033 313 1041 280Q1049 247 1056 218Q1064 184 1072 149Q1080 187 1088 223Q1095 254 1102 288Q1110 321 1117 347L1308 1082H1484Z" fill="#AEB6D4"/><path transform="translate(216.32,142.00) scale(0.00757,-0.00757)" d="M137 1312V1484H317V1312ZM137 0V1082H317V0Z" fill="#AEB6D4"/><path transform="translate(219.76,142.00) scale(0.00757,-0.00757)" d="M554 8Q513 -3 470 -10Q428 -16 372 -16Q156 -16 156 229V951H31V1082H163L216 1324H336V1082H536V951H336V268Q336 190 362 158Q387 127 450 127Q476 127 500 131Q525 135 554 141Z" fill="#AEB6D4"/><path transform="translate(224.07,142.00) scale(0.00757,-0.00757)" d="M317 897Q347 952 382 990Q417 1029 459 1054Q501 1079 551 1090Q601 1102 663 1102Q767 1102 834 1074Q900 1046 938 996Q977 945 992 875Q1006 805 1006 721V0H825V686Q825 755 816 807Q808 859 784 894Q760 928 716 946Q672 963 602 963Q538 963 486 940Q435 917 398 875Q362 833 342 773Q322 713 322 638V0H142V1484H322V1098Q322 1065 321 1032Q320 999 318 971Q317 943 316 924Q315 904 314 897Z" fill="#AEB6D4"/><path transform="translate(232.69,142.00) scale(0.00757,-0.00757)" d="M91 464V624H591V464Z" fill="#AEB6D4"/><path transform="translate(237.85,142.00) scale(0.00757,-0.00757)" d="M768 0V686Q768 765 758 818Q748 871 724 904Q701 936 663 950Q625 963 570 963Q513 963 467 940Q421 918 388 876Q356 833 338 770Q321 708 321 627V0H142V851Q142 885 142 922Q141 960 140 994Q139 1027 138 1051Q137 1075 136 1082H306Q307 1077 308 1055Q309 1033 310 1004Q312 976 313 946Q314 917 314 897H317Q341 944 369 982Q397 1020 434 1046Q472 1073 520 1088Q569 1102 633 1102Q756 1102 828 1053Q899 1004 927 897H930Q954 944 984 982Q1014 1020 1054 1046Q1094 1073 1144 1088Q1194 1102 1258 1102Q1340 1102 1400 1080Q1459 1058 1497 1012Q1535 966 1553 894Q1571 821 1571 721V0H1393V686Q1393 765 1383 818Q1373 871 1350 904Q1326 936 1288 950Q1250 963 1195 963Q1138 963 1092 942Q1046 920 1014 878Q981 836 964 773Q946 710 946 627V0Z" fill="#AEB6D4"/><path transform="translate(250.76,142.00) scale(0.00757,-0.00757)" d="M276 503Q276 418 294 346Q311 275 348 224Q384 172 441 144Q498 115 578 115Q695 115 766 162Q836 209 861 281L1019 236Q1002 191 972 146Q941 100 890 64Q839 27 762 4Q686 -20 578 -20Q338 -20 212 123Q87 266 87 548Q87 700 125 806Q163 911 229 977Q295 1043 383 1072Q471 1102 571 1102Q707 1102 798 1058Q890 1014 946 936Q1001 859 1024 754Q1048 649 1048 527V503ZM862 641Q847 812 775 890Q703 969 568 969Q523 969 474 954Q424 940 382 903Q340 866 311 802Q282 739 278 641Z" fill="#AEB6D4"/><rect x="32" y="160" width="14" height="2" fill="#8C97FF"/><path transform="translate(54.00,166.00) scale(0.00659,-0.00659)" d="M817 0Q815 8 812 28Q810 49 808 75Q805 101 804 128Q802 155 802 176H798Q745 69 667 24Q589 -20 482 -20Q387 -20 315 22Q243 64 194 138Q146 213 122 316Q97 418 97 539Q97 662 121 765Q145 868 194 942Q243 1017 318 1058Q392 1100 493 1100Q538 1100 583 1090Q628 1080 668 1058Q709 1035 742 998Q776 962 800 909H802Q802 919 802 938Q801 958 801 983Q801 1008 800 1035Q800 1062 800 1087V1484H1081V236Q1081 157 1084 96Q1087 34 1089 0ZM804 546Q804 653 784 724Q765 794 734 835Q703 876 666 892Q629 909 593 909Q547 909 510 888Q472 867 446 822Q419 778 404 708Q390 638 390 539Q390 355 442 264Q495 172 591 172Q626 172 664 190Q701 208 732 251Q764 294 784 366Q804 438 804 546Z" fill="#8C97FF"/><path transform="translate(62.70,166.00) scale(0.00659,-0.00659)" d="M439 -20Q361 -20 300 2Q238 23 195 64Q152 106 129 167Q106 228 106 306Q106 402 138 468Q170 533 226 574Q282 614 358 632Q435 651 523 652L746 656V711Q746 770 736 810Q725 849 706 874Q687 899 660 910Q632 920 598 920Q567 920 541 913Q515 906 496 888Q477 871 465 842Q453 812 448 767L155 781Q167 852 198 910Q228 969 282 1012Q337 1055 418 1078Q499 1102 610 1102Q812 1102 920 1003Q1027 904 1027 712V320Q1027 282 1030 252Q1034 222 1044 202Q1053 181 1070 170Q1088 160 1116 160Q1148 160 1178 166V14Q1153 8 1133 3Q1113 -2 1093 -5Q1073 -8 1050 -10Q1028 -12 998 -12Q892 -12 842 40Q791 92 781 193H775Q747 143 714 104Q682 64 642 36Q601 9 551 -6Q501 -20 439 -20ZM746 501 612 499Q567 498 528 492Q489 487 460 470Q432 452 416 418Q399 385 399 328Q399 251 430 214Q460 176 519 176Q573 176 615 199Q657 222 686 260Q716 297 731 346Q746 395 746 446Z" fill="#8C97FF"/><path transform="translate(71.40,166.00) scale(0.00659,-0.00659)" d="M774 0H438L31 1082H328L537 460Q546 430 556 396Q566 363 575 330Q584 297 592 266Q601 235 608 210Q614 234 623 264Q632 295 642 328Q651 361 662 394Q672 427 682 457L899 1082H1193Z" fill="#8C97FF"/><path transform="translate(80.10,166.00) scale(0.00659,-0.00659)" d="M794 190H1147V0H118V190H513V892H223V1082H794ZM513 1277V1484H794V1277Z" fill="#8C97FF"/><path transform="translate(88.81,166.00) scale(0.00659,-0.00659)" d="M817 0Q815 8 812 28Q810 49 808 75Q805 101 804 128Q802 155 802 176H798Q745 69 667 24Q589 -20 482 -20Q387 -20 315 22Q243 64 194 138Q146 213 122 316Q97 418 97 539Q97 662 121 765Q145 868 194 942Q243 1017 318 1058Q392 1100 493 1100Q538 1100 583 1090Q628 1080 668 1058Q709 1035 742 998Q776 962 800 909H802Q802 919 802 938Q801 958 801 983Q801 1008 800 1035Q800 1062 800 1087V1484H1081V236Q1081 157 1084 96Q1087 34 1089 0ZM804 546Q804 653 784 724Q765 794 734 835Q703 876 666 892Q629 909 593 909Q547 909 510 888Q472 867 446 822Q419 778 404 708Q390 638 390 539Q390 355 442 264Q495 172 591 172Q626 172 664 190Q701 208 732 251Q764 294 784 366Q804 438 804 546Z" fill="#8C97FF"/><path transform="translate(97.51,166.00) scale(0.00659,-0.00659)" d="M1081 848Q1034 856 982 862Q931 867 869 867Q785 867 722 833Q658 799 616 740Q573 682 552 604Q530 526 530 438V0H250V701Q250 757 244 815Q238 873 230 924Q222 976 213 1017Q204 1058 198 1082H469Q475 1060 482 1032Q489 1005 495 974Q501 944 506 913Q512 882 515 854H519Q540 911 568 957Q597 1003 639 1035Q681 1067 739 1084Q797 1102 875 1102Q931 1102 985 1097Q1039 1092 1081 1085Z" fill="#8C97FF"/><path transform="translate(106.21,166.00) scale(0.00659,-0.00659)" d="M416 1082V475Q416 412 426 360Q436 307 457 270Q478 232 510 211Q543 190 588 190Q631 190 669 212Q707 235 735 276Q763 318 779 376Q795 433 795 502V1082H1076V242Q1076 208 1076 170Q1077 133 1078 100Q1080 66 1082 40Q1083 13 1084 0H816Q815 12 812 38Q810 65 808 97Q807 129 806 161Q804 193 804 215H799Q743 92 659 36Q575 -20 471 -20Q377 -20 313 12Q249 44 210 100Q170 155 152 231Q135 307 135 395V1082Z" fill="#8C97FF"/><path transform="translate(114.91,166.00) scale(0.00659,-0.00659)" d="M1104 316Q1104 238 1072 176Q1039 114 977 70Q915 27 825 4Q735 -20 620 -20Q517 -20 434 -5Q351 10 288 44Q226 79 184 134Q142 189 121 270L368 307Q380 262 401 234Q422 206 453 191Q484 176 526 171Q567 166 620 166Q668 166 710 172Q751 177 782 190Q812 204 829 228Q846 253 846 290Q846 332 822 356Q797 381 754 396Q712 412 654 424Q597 435 532 450Q464 465 398 486Q332 507 280 543Q228 579 196 634Q164 690 164 775Q164 852 194 912Q224 973 282 1016Q340 1058 426 1080Q511 1103 622 1103Q710 1103 786 1086Q862 1070 922 1034Q982 999 1022 944Q1063 889 1079 811L830 785Q823 824 805 850Q787 875 760 890Q734 905 699 910Q664 916 622 916Q522 916 472 890Q422 865 422 805Q422 768 442 746Q463 724 500 710Q538 695 590 684Q641 674 702 659Q777 643 850 622Q922 600 978 562Q1035 525 1070 466Q1104 407 1104 316Z" fill="#8C97FF"/><path transform="translate(123.61,166.00) scale(0.00659,-0.00659)" d="M1104 316Q1104 238 1072 176Q1039 114 977 70Q915 27 825 4Q735 -20 620 -20Q517 -20 434 -5Q351 10 288 44Q226 79 184 134Q142 189 121 270L368 307Q380 262 401 234Q422 206 453 191Q484 176 526 171Q567 166 620 166Q668 166 710 172Q751 177 782 190Q812 204 829 228Q846 253 846 290Q846 332 822 356Q797 381 754 396Q712 412 654 424Q597 435 532 450Q464 465 398 486Q332 507 280 543Q228 579 196 634Q164 690 164 775Q164 852 194 912Q224 973 282 1016Q340 1058 426 1080Q511 1103 622 1103Q710 1103 786 1086Q862 1070 922 1034Q982 999 1022 944Q1063 889 1079 811L830 785Q823 824 805 850Q787 875 760 890Q734 905 699 910Q664 916 622 916Q522 916 472 890Q422 865 422 805Q422 768 442 746Q463 724 500 710Q538 695 590 684Q641 674 702 659Q777 643 850 622Q922 600 978 562Q1035 525 1070 466Q1104 407 1104 316Z" fill="#8C97FF"/><path transform="translate(132.31,166.00) scale(0.00659,-0.00659)" d="M626 -20Q509 -20 412 14Q315 49 246 120Q177 190 138 296Q100 403 100 546Q100 701 144 807Q189 913 263 978Q337 1044 432 1073Q528 1102 630 1102Q758 1102 852 1058Q945 1013 1007 933Q1069 853 1099 742Q1129 630 1129 495V487H395Q395 419 410 360Q426 302 456 260Q487 217 533 192Q579 168 640 168Q714 168 771 200Q828 231 848 297L1113 274Q1095 228 1060 176Q1024 124 966 80Q908 37 824 8Q741 -20 626 -20ZM626 925Q583 925 542 910Q502 896 470 864Q439 833 419 783Q399 733 397 663H857Q853 728 834 777Q814 826 784 859Q753 892 712 908Q672 925 626 925Z" fill="#8C97FF"/><path transform="translate(141.01,166.00) scale(0.00659,-0.00659)" d="M794 190H1147V0H118V190H513V1294H223V1484H794Z" fill="#8C97FF"/><path transform="translate(149.71,166.00) scale(0.00659,-0.00659)" d="M794 190H1147V0H118V190H513V1294H223V1484H794Z" fill="#8C97FF"/><path transform="translate(158.42,166.00) scale(0.00659,-0.00659)" d="M470 0V305H759V0Z" fill="#8C97FF"/><path transform="translate(167.12,166.00) scale(0.00659,-0.00659)" d="M624 -20Q495 -20 398 20Q302 60 238 133Q174 206 142 308Q110 411 110 535Q110 670 145 776Q180 881 246 954Q312 1026 408 1064Q505 1102 628 1102Q733 1102 814 1074Q896 1046 955 998Q1014 949 1050 883Q1087 817 1101 741L818 727Q806 810 758 860Q710 909 622 909Q509 909 457 816Q405 723 405 546Q405 172 626 172Q706 172 760 222Q814 273 827 373L1109 360Q1099 285 1064 216Q1028 148 968 96Q907 43 821 12Q735 -20 624 -20Z" fill="#8C97FF"/><path transform="translate(175.82,166.00) scale(0.00659,-0.00659)" d="M1137 542Q1137 418 1106 315Q1075 212 1010 138Q946 63 846 22Q747 -20 610 -20Q478 -20 381 21Q284 62 220 136Q155 210 124 314Q92 417 92 542Q92 663 122 766Q152 868 216 943Q279 1018 378 1060Q478 1102 616 1102Q762 1102 862 1060Q961 1018 1022 944Q1084 869 1110 766Q1137 664 1137 542ZM843 542Q843 638 830 708Q818 777 792 822Q765 867 722 888Q680 909 620 909Q496 909 442 821Q387 733 387 542Q387 349 442 260Q498 172 607 172Q669 172 714 194Q759 215 788 260Q816 305 830 375Q843 445 843 542Z" fill="#8C97FF"/></svg>