<svg xmlns="http://www.w3.org/2000/svg" width="600" height="196" viewBox="0 0 600 196" font-family="Liberation Sans,Arial,sans-serif" role="img" aria-label="Let’s Chat — Custom AI phone agents — built &amp; run (LIVE)"><defs><linearGradient id="pletschat" x1="0" y1="0" x2="0.4" y2="1"><stop offset="0" stop-color="#11183A"/><stop offset="1" stop-color="#0A0E1C"/></linearGradient><radialGradient id="glletschat" cx="0.82" cy="0.5" r="0.5"><stop offset="0" stop-color="#FF6A3D" stop-opacity="0.20"/><stop offset="1" stop-color="#FF6A3D" stop-opacity="0"/></radialGradient><radialGradient id="sdletschat" cx="0.5" cy="0.5" r="0.5"><stop offset="0" stop-color="#36C28B"/><stop offset="0.5" stop-color="#36C28B" stop-opacity="0.45"/><stop offset="1" stop-color="#36C28B" stop-opacity="0"/></radialGradient><clipPath id="clletschat"><rect x="3" y="3" width="594" height="190" rx="20"/></clipPath></defs><style>@keyframes blletschat{0%,100%{opacity:1}50%{opacity:.45}}.sdletschat{animation:blletschat 3.2s ease-in-out infinite}@keyframes rgletschat{0%{opacity:.15}50%{opacity:.5}100%{opacity:.15}}</style><g clip-path="url(#clletschat)"><rect x="3" y="3" width="594" height="190" rx="20" fill="url(#pletschat)"/><rect x="3" y="3" width="594" height="190" fill="url(#glletschat)"/><path d="M0,150 L0,150.0 L12,151.9 L24,153.7 L36,155.3 L48,156.6 L60,157.5 L72,157.9 L84,158.0 L96,157.5 L108,156.7 L120,155.4 L132,153.8 L144,152.1 L156,150.2 L168,148.3 L180,146.5 L192,144.9 L204,143.5 L216,142.6 L228,142.1 L240,142.0 L252,142.4 L264,143.3 L276,144.5 L288,146.0 L300,147.8 L312,149.7 L324,151.6 L336,153.4 L348,155.0 L360,156.3 L372,157.3 L384,157.9 L396,158.0 L408,157.6 L420,156.8 L432,155.7 L444,154.1 L456,152.4 L468,150.5 L480,148.6 L492,146.8 L504,145.1 L516,143.8 L528,142.7 L540,142.2 L552,142.0 L564,142.3 L576,143.1 L588,144.2 L600,145.7" fill="none" stroke="#FF6A3D" stroke-width="1" opacity="0.10"/><path d="M0,168 L0,174.7 L12,175.6 L24,176.0 L36,175.9 L48,175.4 L60,174.5 L72,173.2 L84,171.6 L96,169.8 L108,167.9 L120,166.0 L132,164.2 L144,162.6 L156,161.4 L168,160.5 L180,160.1 L192,160.1 L204,160.5 L216,161.4 L228,162.7 L240,164.3 L252,166.1 L264,168.0 L276,169.9 L288,171.7 L300,173.3 L312,174.5 L324,175.4 L336,175.9 L348,176.0 L360,175.5 L372,174.7 L384,173.4 L396,171.9 L408,170.1 L420,168.2 L432,166.3 L444,164.5 L456,162.9 L468,161.6 L480,160.6 L492,160.1 L504,160.0 L516,160.4 L528,161.2 L540,162.5 L552,164.0 L564,165.7 L576,167.6 L588,169.5 L600,171.4" fill="none" stroke="#FF6A3D" stroke-width="1" opacity="0.10"/><path d="M0,186 L0,193.3 L12,192.3 L24,190.9 L36,189.3 L48,187.4 L60,185.5 L72,183.6 L84,181.9 L96,180.4 L108,179.2 L120,178.4 L132,178.0 L144,178.1 L156,178.7 L168,179.6 L180,180.9 L192,182.6 L204,184.4 L216,186.3 L228,188.2 L240,190.0 L252,191.5 L264,192.7 L276,193.6 L288,194.0 L300,193.9 L312,193.4 L324,192.5 L336,191.2 L348,189.6 L360,187.8 L372,185.9 L384,184.0 L396,182.2 L408,180.6 L420,179.4 L432,178.5 L444,178.1 L456,178.1 L468,178.5 L480,179.4 L492,180.7 L504,182.3 L516,184.0 L528,185.9 L540,187.9 L552,189.6 L564,191.2 L576,192.5 L588,193.4 L600,193.9" fill="none" stroke="#FF6A3D" stroke-width="1" opacity="0.10"/></g><rect x="3" y="3" width="594" height="190" rx="20" fill="none" stroke="#FF6A3D" stroke-width="1.2" opacity="0.32"/><circle class="sdletschat" cx="34" cy="40" r="11" fill="url(#sdletschat)"/><circle cx="34" cy="40" r="4.5" fill="#36C28B"/><path transform="translate(52.00,45.00) scale(0.00610,-0.00610)" d="M211 0V1349H506V228H1122V0Z" fill="#36C28B"/><path transform="translate(61.50,45.00) scale(0.00610,-0.00610)" d="M157 1349H1073V1121H762V228H1073V0H157V228H468V1121H157Z" fill="#36C28B"/><path transform="translate(71.00,45.00) scale(0.00610,-0.00610)" d="M766 0H467L3 1349H311L544 574Q558 529 571 482Q584 435 595 396Q607 350 618 308Q628 349 639 394Q649 432 662 480Q676 527 690 574L922 1349H1227Z" fill="#36C28B"/><path transform="translate(80.50,45.00) scale(0.00610,-0.00610)" d="M137 0V1349H1105V1121H432V797H1044V569H432V228H1146V0Z" fill="#36C28B"/><path transform="translate(446.48,45.00) scale(0.00610,-0.00610)" d="M237 0V1349H428V156H1100V0Z" fill="#737EA6"/><path transform="translate(455.99,45.00) scale(0.00610,-0.00610)" d="M202 1349H1025V1193H709V156H1025V0H202V156H518V1193H202Z" fill="#737EA6"/><path transform="translate(465.49,45.00) scale(0.00610,-0.00610)" d="M713 0H515L10 1349H211L531 447Q547 402 562 354Q576 305 588 263Q602 215 615 168Q627 213 641 261Q653 302 668 351Q683 400 699 447L1017 1349H1218Z" fill="#737EA6"/><path transform="translate(474.99,45.00) scale(0.00610,-0.00610)" d="M162 0V1349H1081V1193H353V771H1021V617H353V156H1122V0Z" fill="#737EA6"/><path transform="translate(493.99,45.00) scale(0.00610,-0.00610)" d="M496 420V719H731V420Z" fill="#737EA6"/><path transform="translate(512.99,45.00) scale(0.00610,-0.00610)" d="M1060 309Q1060 233 1030 172Q1001 111 945 68Q889 26 808 3Q726 -20 621 -20Q527 -20 452 -6Q376 7 319 38Q262 69 224 120Q185 172 167 248L326 279Q338 224 364 192Q391 159 428 142Q466 125 515 120Q564 114 621 114Q679 114 728 122Q778 131 814 152Q850 172 870 204Q891 237 891 285Q891 335 866 366Q840 396 796 417Q752 438 692 453Q631 468 560 487Q496 504 433 524Q370 544 320 576Q271 609 240 659Q210 709 210 786Q210 933 316 1016Q422 1099 623 1099Q702 1099 771 1084Q840 1070 894 1038Q948 1007 984 958Q1021 908 1035 839L873 819Q866 864 843 892Q820 920 786 936Q753 953 711 959Q669 965 623 965Q378 965 378 814Q378 768 400 740Q421 711 460 692Q499 673 553 660Q607 646 672 629Q737 613 806 592Q874 571 930 536Q987 501 1024 446Q1060 392 1060 309Z" fill="#737EA6"/><path transform="translate(522.49,45.00) scale(0.00610,-0.00610)" d="M190 940V1082H360L418 1364H538V1082H970V940H538V288Q538 209 580 171Q623 133 720 133Q760 133 802 136Q845 140 884 145Q924 150 958 156Q993 162 1017 167V30Q995 24 960 16Q925 8 882 1Q838 -6 787 -11Q736 -16 682 -16Q520 -16 439 52Q358 121 358 269V940Z" fill="#737EA6"/><path transform="translate(532.00,45.00) scale(0.00610,-0.00610)" d="M365 1082V396Q365 317 376 264Q388 211 414 178Q441 146 484 132Q526 119 589 119Q653 119 704 142Q756 164 792 206Q829 249 848 312Q868 374 868 455V1082H1049V231Q1049 197 1050 160Q1050 122 1051 88Q1052 55 1053 31Q1054 7 1055 0H885Q884 5 883 27Q882 49 880 78Q879 106 878 136Q877 165 877 185H874Q848 138 817 100Q786 62 745 36Q704 9 651 -6Q598 -20 528 -20Q438 -20 373 2Q308 24 266 70Q224 116 204 188Q185 261 185 361V1082Z" fill="#737EA6"/><path transform="translate(541.50,45.00) scale(0.00610,-0.00610)" d="M862 174Q813 69 732 22Q651 -26 530 -26Q328 -26 233 113Q138 252 138 532Q138 1098 530 1098Q651 1098 732 1055Q814 1012 863 914H865Q865 919 864 940Q864 961 864 986Q864 1011 864 1034Q863 1056 863 1065V1484H1043V223Q1043 184 1044 148Q1044 112 1045 82Q1046 52 1047 30Q1048 9 1049 0H877Q876 4 874 22Q872 40 870 65Q869 90 868 119Q867 148 867 174ZM324 538Q324 426 338 346Q353 266 384 214Q414 162 462 138Q510 113 577 113Q646 113 700 137Q753 161 790 214Q826 266 844 350Q863 434 863 554Q863 670 844 748Q826 827 790 875Q754 923 701 944Q648 965 579 965Q515 965 467 942Q419 919 388 868Q356 817 340 736Q324 654 324 538Z" fill="#737EA6"/><path transform="translate(551.00,45.00) scale(0.00610,-0.00610)" d="M745 142H1125V0H143V142H565V940H246V1082H745ZM545 1292V1484H745V1292Z" fill="#737EA6"/><path transform="translate(560.50,45.00) scale(0.00610,-0.00610)" d="M1097 542Q1097 400 1064 294Q1030 189 967 119Q904 49 814 14Q723 -20 609 -20Q500 -20 412 14Q323 48 260 118Q198 188 164 294Q130 399 130 542Q130 821 256 962Q383 1102 615 1102Q859 1102 978 963Q1097 824 1097 542ZM908 542Q908 668 886 750Q865 832 826 881Q788 930 735 950Q682 969 618 969Q553 969 498 948Q443 928 404 878Q364 829 342 747Q319 665 319 542Q319 416 342 334Q366 251 406 202Q445 153 498 133Q550 113 607 113Q672 113 728 132Q783 152 823 201Q863 250 886 333Q908 416 908 542Z" fill="#737EA6"/><circle cx="508" cy="104" r="24" fill="none" stroke="#FF6A3D" stroke-width="1.3" opacity="0.5"/><circle cx="508" cy="104" r="13.9" fill="none" stroke="#FF6A3D" stroke-width="1" opacity="0.3"/><line x1="484" y1="104" x2="532" y2="104" stroke="#FF6A3D" stroke-width="1" opacity="0.16"/><line x1="508" y1="80" x2="508" y2="128" stroke="#FF6A3D" stroke-width="1" opacity="0.16"/><g><path d="M508,104 L532,104 A24,24 0 0 1 525.3,121.3 Z" fill="#FF6A3D" opacity="0.20"/><line x1="508" y1="104" x2="532" y2="104" stroke="#FF6A3D" stroke-width="1.5" opacity="0.7"/><animateTransform attributeName="transform" type="rotate" from="0 508 104" to="360 508 104" dur="4.5s" repeatCount="indefinite"/></g><circle cx="520.0" cy="93.9" r="2.6" fill="#FF6A3D"><animate attributeName="opacity" values="0.15;1;0.15" dur="4.5s" repeatCount="indefinite"/></circle><circle cx="508" cy="104" r="2" fill="#FF6A3D"/><path transform="translate(32.00,112.00) scale(0.01611,-0.01611)" d="M137 0V1409H432V228H1188V0Z" fill="#F6F1E6"/><path transform="translate(50.96,112.00) scale(0.01611,-0.01611)" d="M586 -20Q469 -20 376 14Q282 49 216 120Q150 190 115 296Q80 403 80 546Q80 701 122 807Q163 913 234 978Q304 1044 396 1073Q488 1102 590 1102Q718 1102 808 1058Q899 1013 957 933Q1015 853 1042 742Q1069 630 1069 495V487H375Q375 419 387 360Q399 302 426 260Q453 217 496 192Q539 168 600 168Q674 168 721 200Q768 231 788 297L1053 274Q1035 228 1002 176Q970 124 916 80Q862 37 782 8Q701 -20 586 -20ZM586 925Q543 925 506 910Q468 896 440 864Q413 833 396 783Q379 733 377 663H797Q789 794 734 860Q679 925 586 925Z" fill="#F6F1E6"/><path transform="translate(68.11,112.00) scale(0.01611,-0.01611)" d="M420 -18Q296 -18 229 50Q162 117 162 254V892H25V1082H176L264 1336H440V1082H645V892H440V330Q440 251 470 214Q500 176 563 176Q589 176 610 180Q631 184 657 190V16Q605 -1 547 -10Q489 -18 420 -18Z" fill="#F6F1E6"/><path transform="translate(77.90,112.00) scale(0.01611,-0.01611)" d="M430 1214Q430 1147 423 1092Q416 1038 402 992Q388 945 368 906Q347 867 321 831H139Q167 867 191 906Q215 945 232 986Q250 1026 260 1068Q270 1109 270 1149H143V1409H430Z" fill="#F6F1E6"/><path transform="translate(85.87,112.00) scale(0.01611,-0.01611)" d="M1055 316Q1055 238 1022 176Q990 114 928 70Q866 27 776 4Q686 -20 571 -20Q468 -20 385 -5Q302 10 240 44Q177 79 135 134Q93 189 72 270L319 307Q331 262 352 234Q373 206 404 191Q435 176 476 171Q518 166 571 166Q619 166 660 172Q702 177 732 190Q763 204 780 228Q797 253 797 290Q797 332 772 356Q748 381 706 396Q663 412 606 424Q548 435 483 450Q415 465 349 486Q283 507 231 543Q179 579 147 634Q115 690 115 775Q115 852 145 912Q175 973 233 1016Q291 1058 376 1080Q462 1103 573 1103Q661 1103 737 1086Q813 1070 873 1034Q933 999 974 944Q1014 889 1030 811L781 785Q774 824 756 850Q738 875 712 890Q685 905 650 910Q615 916 573 916Q473 916 423 890Q373 865 373 805Q373 768 394 746Q414 724 452 710Q489 695 540 684Q592 674 653 659Q728 643 800 622Q873 600 930 562Q986 525 1020 466Q1055 407 1055 316Z" fill="#F6F1E6"/><path transform="translate(110.99,112.00) scale(0.01611,-0.01611)" d="M795 212Q878 212 938 236Q999 259 1044 297Q1088 335 1118 383Q1147 431 1166 480L1423 383Q1392 307 1342 234Q1292 161 1217 105Q1142 49 1038 14Q935 -20 795 -20Q612 -20 478 34Q344 89 256 186Q169 284 126 418Q84 552 84 711Q84 876 126 1009Q169 1142 255 1236Q341 1329 472 1380Q604 1430 782 1430Q920 1430 1024 1401Q1127 1372 1202 1320Q1278 1267 1328 1196Q1377 1124 1405 1038L1145 967Q1131 1012 1102 1054Q1073 1095 1028 1127Q984 1159 924 1178Q864 1198 788 1198Q681 1198 604 1164Q527 1129 478 1065Q428 1001 404 912Q381 822 381 711Q381 601 404 510Q428 418 478 352Q528 286 606 249Q685 212 795 212Z" fill="#F6F1E6"/><path transform="translate(133.62,112.00) scale(0.01611,-0.01611)" d="M420 866Q477 990 563 1046Q649 1102 768 1102Q866 1102 934 1070Q1001 1038 1044 982Q1086 926 1105 850Q1124 774 1124 686V0H844V606Q844 669 834 722Q824 774 801 812Q778 849 741 870Q704 891 651 891Q600 891 558 868Q517 846 487 804Q457 763 440 706Q424 648 424 579V0H143V1484H424V1079Q424 1047 423 1014Q422 982 420 954Q419 925 418 902Q417 879 416 866Z" fill="#F6F1E6"/><path transform="translate(152.58,112.00) scale(0.01611,-0.01611)" d="M393 -20Q315 -20 254 2Q192 23 149 64Q106 106 83 167Q60 228 60 306Q60 402 94 468Q127 533 185 574Q243 614 321 632Q399 651 487 652L720 656V711Q720 770 710 810Q699 849 679 874Q659 899 630 910Q600 920 562 920Q527 920 500 913Q472 906 452 888Q432 871 420 842Q407 812 402 767L109 781Q121 852 153 910Q185 969 242 1012Q298 1055 380 1078Q463 1102 574 1102Q675 1102 754 1077Q833 1052 888 1002Q943 953 972 881Q1001 809 1001 714V320Q1001 282 1004 252Q1008 222 1018 202Q1027 181 1044 170Q1062 160 1090 160Q1122 160 1152 166V14Q1127 8 1107 3Q1087 -2 1067 -5Q1047 -8 1024 -10Q1002 -12 972 -12Q866 -12 816 40Q765 92 755 193H749Q693 92 606 36Q518 -20 393 -20ZM720 501 576 499Q531 497 490 492Q450 486 420 468Q389 451 371 418Q353 385 353 328Q353 251 388 214Q424 176 483 176Q537 176 581 199Q625 222 656 260Q686 297 703 346Q720 395 720 446Z" fill="#F6F1E6"/><path transform="translate(169.73,112.00) scale(0.01611,-0.01611)" d="M420 -18Q296 -18 229 50Q162 117 162 254V892H25V1082H176L264 1336H440V1082H645V892H440V330Q440 251 470 214Q500 176 563 176Q589 176 610 180Q631 184 657 190V16Q605 -1 547 -10Q489 -18 420 -18Z" fill="#F6F1E6"/><path transform="translate(32.00,142.00) scale(0.00757,-0.00757)" d="M792 1274Q672 1274 580 1234Q487 1194 424 1120Q362 1046 330 942Q298 838 298 711Q298 584 332 478Q367 373 432 297Q496 221 590 179Q683 137 800 137Q882 137 950 158Q1017 180 1072 219Q1126 258 1169 312Q1212 365 1245 430L1401 352Q1363 273 1307 205Q1251 137 1176 87Q1100 37 1004 8Q909 -20 791 -20Q620 -20 492 34Q363 89 276 186Q190 284 147 418Q104 552 104 711Q104 876 150 1009Q195 1142 282 1236Q370 1329 498 1380Q626 1430 790 1430Q1015 1430 1166 1342Q1317 1254 1388 1081L1207 1021Q1187 1071 1153 1116Q1119 1162 1068 1197Q1017 1232 948 1253Q880 1274 792 1274Z" fill="#AEB6D4"/><path transform="translate(43.19,142.00) scale(0.00757,-0.00757)" d="M314 1082V396Q314 317 326 264Q337 211 363 178Q389 146 432 132Q474 119 537 119Q601 119 652 142Q704 164 740 206Q777 249 797 312Q817 374 817 455V1082H997V231Q997 197 998 160Q998 122 999 88Q1000 55 1001 31Q1002 7 1003 0H833Q832 5 831 27Q830 49 828 78Q827 106 826 136Q825 165 825 185H822Q796 138 765 100Q734 62 693 36Q652 9 599 -6Q546 -20 476 -20Q386 -20 321 2Q256 24 214 70Q172 116 152 188Q133 260 133 361V1082Z" fill="#AEB6D4"/><path transform="translate(51.81,142.00) scale(0.00757,-0.00757)" d="M950 299Q950 223 920 164Q891 104 835 64Q779 23 698 2Q616 -20 511 -20Q417 -20 342 -6Q266 9 209 41Q152 73 114 126Q75 178 57 254L216 285Q239 198 311 158Q383 117 511 117Q569 117 618 125Q666 133 701 152Q736 172 756 204Q775 237 775 285Q775 334 752 366Q729 397 688 418Q647 439 588 454Q530 470 460 489Q395 506 331 527Q267 548 216 582Q164 617 132 668Q100 719 100 796Q100 944 206 1022Q311 1099 513 1099Q692 1099 798 1036Q903 973 931 834L769 814Q760 856 736 884Q712 913 678 930Q644 948 602 956Q559 963 513 963Q391 963 333 926Q275 889 275 814Q275 770 296 742Q318 713 356 694Q395 674 449 660Q503 645 568 629Q611 618 656 606Q701 593 744 576Q786 558 824 534Q861 511 889 478Q917 445 934 401Q950 357 950 299Z" fill="#AEB6D4"/><path transform="translate(59.56,142.00) scale(0.00757,-0.00757)" d="M554 8Q513 -3 470 -10Q428 -16 372 -16Q156 -16 156 229V951H31V1082H163L216 1324H336V1082H536V951H336V268Q336 190 362 158Q387 127 450 127Q476 127 500 131Q525 135 554 141Z" fill="#AEB6D4"/><path transform="translate(63.87,142.00) scale(0.00757,-0.00757)" d="M1053 542Q1053 258 928 119Q803 -20 565 -20Q452 -20 363 14Q274 48 212 118Q151 188 118 294Q86 399 86 542Q86 1102 571 1102Q697 1102 788 1067Q880 1032 938 962Q997 892 1025 787Q1053 682 1053 542ZM864 542Q864 668 844 750Q825 832 788 881Q750 930 696 950Q642 969 574 969Q505 969 450 948Q394 928 355 878Q316 829 296 747Q275 665 275 542Q275 416 297 334Q319 251 358 202Q396 153 448 133Q501 113 563 113Q632 113 688 132Q744 152 783 201Q822 250 843 333Q864 416 864 542Z" fill="#AEB6D4"/><path transform="translate(72.49,142.00) scale(0.00757,-0.00757)" d="M768 0V686Q768 765 758 818Q748 871 724 904Q701 936 663 950Q625 963 570 963Q513 963 467 940Q421 918 388 876Q356 833 338 770Q321 708 321 627V0H142V851Q142 885 142 922Q141 960 140 994Q139 1027 138 1051Q137 1075 136 1082H306Q307 1077 308 1055Q309 1033 310 1004Q312 976 313 946Q314 917 314 897H317Q341 944 369 982Q397 1020 434 1046Q472 1073 520 1088Q569 1102 633 1102Q756 1102 828 1053Q899 1004 927 897H930Q954 944 984 982Q1014 1020 1054 1046Q1094 1073 1144 1088Q1194 1102 1258 1102Q1340 1102 1400 1080Q1459 1058 1497 1012Q1535 966 1553 894Q1571 821 1571 721V0H1393V686Q1393 765 1383 818Q1373 871 1350 904Q1326 936 1288 950Q1250 963 1195 963Q1138 963 1092 942Q1046 920 1014 878Q981 836 964 773Q946 710 946 627V0Z" fill="#AEB6D4"/><path transform="translate(89.71,142.00) scale(0.00757,-0.00757)" d="M1167 0 1006 412H364L202 0H4L579 1409H796L1362 0ZM768 1026Q752 1066 738 1107Q723 1148 712 1182Q701 1215 694 1238Q686 1260 685 1265Q683 1260 676 1237Q669 1214 658 1180Q646 1146 632 1105Q617 1064 602 1024L422 561H949Z" fill="#AEB6D4"/><path transform="translate(100.05,142.00) scale(0.00757,-0.00757)" d="M189 0V1409H380V0Z" fill="#AEB6D4"/><path transform="translate(108.66,142.00) scale(0.00757,-0.00757)" d="M1053 546Q1053 423 1033 319Q1013 215 966 140Q920 65 844 22Q767 -20 655 -20Q539 -20 452 24Q365 68 319 168H314Q315 166 316 150Q316 134 316 110Q317 86 318 56Q318 27 318 -2V-425H138V861Q138 900 138 936Q137 972 136 1002Q135 1031 134 1052Q133 1073 132 1082H306Q307 1079 308 1061Q310 1043 312 1018Q313 992 314 963Q316 934 316 908H320Q345 960 377 996Q409 1033 450 1056Q491 1080 542 1090Q592 1101 655 1101Q767 1101 844 1061Q920 1021 966 948Q1013 876 1033 774Q1053 671 1053 546ZM864 542Q864 642 852 720Q840 798 810 852Q781 906 732 934Q683 962 609 962Q549 962 496 945Q443 928 404 880Q364 832 341 748Q318 663 318 528Q318 413 337 334Q356 254 392 205Q429 156 483 134Q537 113 607 113Q682 113 732 142Q781 171 810 226Q840 281 852 360Q864 440 864 542Z" fill="#AEB6D4"/><path transform="translate(117.28,142.00) scale(0.00757,-0.00757)" d="M317 897Q347 952 382 990Q417 1029 459 1054Q501 1079 551 1090Q601 1102 663 1102Q767 1102 834 1074Q900 1046 938 996Q977 945 992 875Q1006 805 1006 721V0H825V686Q825 755 816 807Q808 859 784 894Q760 928 716 946Q672 963 602 963Q538 963 486 940Q435 917 398 875Q362 833 342 773Q322 713 322 638V0H142V1484H322V1098Q322 1065 321 1032Q320 999 318 971Q317 943 316 924Q315 904 314 897Z" fill="#AEB6D4"/><path transform="translate(125.90,142.00) scale(0.00757,-0.00757)" d="M1053 542Q1053 258 928 119Q803 -20 565 -20Q452 -20 363 14Q274 48 212 118Q151 188 118 294Q86 399 86 542Q86 1102 571 1102Q697 1102 788 1067Q880 1032 938 962Q997 892 1025 787Q1053 682 1053 542ZM864 542Q864 668 844 750Q825 832 788 881Q750 930 696 950Q642 969 574 969Q505 969 450 948Q394 928 355 878Q316 829 296 747Q275 665 275 542Q275 416 297 334Q319 251 358 202Q396 153 448 133Q501 113 563 113Q632 113 688 132Q744 152 783 201Q822 250 843 333Q864 416 864 542Z" fill="#AEB6D4"/><path transform="translate(134.52,142.00) scale(0.00757,-0.00757)" d="M825 0V686Q825 765 814 818Q802 871 776 904Q750 936 708 950Q665 963 602 963Q538 963 486 940Q435 918 398 876Q362 833 342 770Q322 708 322 627V0H142V851Q142 885 142 922Q141 960 140 994Q139 1027 138 1051Q137 1075 136 1082H306Q307 1077 308 1055Q309 1033 310 1004Q312 976 313 946Q314 917 314 897H317Q343 944 374 982Q405 1020 446 1046Q487 1073 540 1088Q593 1102 663 1102Q753 1102 818 1080Q883 1058 925 1012Q967 966 986 894Q1006 821 1006 721V0Z" fill="#AEB6D4"/><path transform="translate(143.14,142.00) scale(0.00757,-0.00757)" d="M276 503Q276 418 294 346Q311 275 348 224Q384 172 441 144Q498 115 578 115Q695 115 766 162Q836 209 861 281L1019 236Q1002 191 972 146Q941 100 890 64Q839 27 762 4Q686 -20 578 -20Q338 -20 212 123Q87 266 87 548Q87 700 125 806Q163 911 229 977Q295 1043 383 1072Q471 1102 571 1102Q707 1102 798 1058Q890 1014 946 936Q1001 859 1024 754Q1048 649 1048 527V503ZM862 641Q847 812 775 890Q703 969 568 969Q523 969 474 954Q424 940 382 903Q340 866 311 802Q282 739 278 641Z" fill="#AEB6D4"/><path transform="translate(156.07,142.00) scale(0.00757,-0.00757)" d="M414 -20Q251 -20 169 66Q87 152 87 302Q87 409 128 478Q168 546 234 585Q299 624 383 639Q467 654 554 656L797 660V719Q797 786 783 833Q769 880 740 909Q711 938 668 952Q624 965 565 965Q513 965 471 958Q429 950 398 930Q367 911 348 878Q329 844 323 793L135 810Q145 874 173 928Q201 981 252 1020Q304 1059 382 1080Q459 1102 569 1102Q773 1102 876 1008Q979 915 979 738V272Q979 192 1000 152Q1021 111 1080 111Q1095 111 1110 113Q1125 115 1139 118V6Q1105 -2 1072 -6Q1038 -10 1000 -10Q949 -10 912 4Q876 17 853 44Q830 72 818 112Q806 153 803 207H797Q768 155 734 113Q699 71 653 42Q607 12 548 -4Q490 -20 414 -20ZM455 115Q541 115 606 146Q670 178 712 227Q755 276 776 334Q797 392 797 445V534L600 530Q534 529 474 520Q415 512 370 487Q325 462 298 417Q272 372 272 299Q272 211 320 163Q367 115 455 115Z" fill="#AEB6D4"/><path transform="translate(164.69,142.00) scale(0.00757,-0.00757)" d="M548 -425Q455 -425 383 -406Q311 -387 260 -352Q209 -316 177 -267Q145 -218 131 -158L312 -132Q330 -207 392 -248Q453 -288 553 -288Q614 -288 664 -271Q714 -254 749 -216Q784 -179 803 -119Q822 -59 822 27V201H820Q800 160 770 122Q741 85 698 56Q656 27 600 10Q544 -8 472 -8Q369 -8 296 26Q222 61 176 130Q129 199 108 302Q86 404 86 539Q86 669 108 773Q129 877 178 950Q226 1022 304 1060Q381 1099 492 1099Q607 1099 692 1046Q776 994 822 897H824Q824 922 826 953Q827 984 828 1012Q830 1039 832 1059Q834 1079 836 1082H1007Q1006 1073 1005 1052Q1004 1030 1003 1000Q1002 970 1002 934Q1001 897 1001 858V31Q1001 -196 890 -310Q778 -425 548 -425ZM822 541Q822 654 798 734Q773 815 733 866Q693 917 642 941Q590 965 536 965Q467 965 418 941Q368 917 336 866Q303 814 288 734Q272 653 272 541Q272 424 288 344Q303 265 335 216Q367 167 416 146Q465 125 533 125Q587 125 638 148Q690 171 731 221Q772 271 797 350Q822 429 822 541Z" fill="#AEB6D4"/><path transform="translate(173.31,142.00) scale(0.00757,-0.00757)" d="M276 503Q276 418 294 346Q311 275 348 224Q384 172 441 144Q498 115 578 115Q695 115 766 162Q836 209 861 281L1019 236Q1002 191 972 146Q941 100 890 64Q839 27 762 4Q686 -20 578 -20Q338 -20 212 123Q87 266 87 548Q87 700 125 806Q163 911 229 977Q295 1043 383 1072Q471 1102 571 1102Q707 1102 798 1058Q890 1014 946 936Q1001 859 1024 754Q1048 649 1048 527V503ZM862 641Q847 812 775 890Q703 969 568 969Q523 969 474 954Q424 940 382 903Q340 866 311 802Q282 739 278 641Z" fill="#AEB6D4"/><path transform="translate(181.93,142.00) scale(0.00757,-0.00757)" d="M825 0V686Q825 765 814 818Q802 871 776 904Q750 936 708 950Q665 963 602 963Q538 963 486 940Q435 918 398 876Q362 833 342 770Q322 708 322 627V0H142V851Q142 885 142 922Q141 960 140 994Q139 1027 138 1051Q137 1075 136 1082H306Q307 1077 308 1055Q309 1033 310 1004Q312 976 313 946Q314 917 314 897H317Q343 944 374 982Q405 1020 446 1046Q487 1073 540 1088Q593 1102 663 1102Q753 1102 818 1080Q883 1058 925 1012Q967 966 986 894Q1006 821 1006 721V0Z" fill="#AEB6D4"/><path transform="translate(190.55,142.00) scale(0.00757,-0.00757)" d="M554 8Q513 -3 470 -10Q428 -16 372 -16Q156 -16 156 229V951H31V1082H163L216 1324H336V1082H536V951H336V268Q336 190 362 158Q387 127 450 127Q476 127 500 131Q525 135 554 141Z" fill="#AEB6D4"/><path transform="translate(194.86,142.00) scale(0.00757,-0.00757)" d="M950 299Q950 223 920 164Q891 104 835 64Q779 23 698 2Q616 -20 511 -20Q417 -20 342 -6Q266 9 209 41Q152 73 114 126Q75 178 57 254L216 285Q239 198 311 158Q383 117 511 117Q569 117 618 125Q666 133 701 152Q736 172 756 204Q775 237 775 285Q775 334 752 366Q729 397 688 418Q647 439 588 454Q530 470 460 489Q395 506 331 527Q267 548 216 582Q164 617 132 668Q100 719 100 796Q100 944 206 1022Q311 1099 513 1099Q692 1099 798 1036Q903 973 931 834L769 814Q760 856 736 884Q712 913 678 930Q644 948 602 956Q559 963 513 963Q391 963 333 926Q275 889 275 814Q275 770 296 742Q318 713 356 694Q395 674 449 660Q503 645 568 629Q611 618 656 606Q701 593 744 576Q786 558 824 534Q861 511 889 478Q917 445 934 401Q950 357 950 299Z" fill="#AEB6D4"/><path transform="translate(206.91,142.00) scale(0.00757,-0.00757)" d="M0 451V588H2048V451Z" fill="#AEB6D4"/><path transform="translate(226.72,142.00) scale(0.00757,-0.00757)" d="M1053 546Q1053 -20 655 -20Q532 -20 450 24Q369 69 318 168H316Q316 142 314 114Q313 86 312 62Q310 38 308 21Q307 4 306 0H132Q133 9 134 30Q135 52 136 82Q137 112 138 148Q138 184 138 223V1484H318V1061Q318 1031 318 1004Q317 976 316 955Q315 930 314 908H318Q368 1012 450 1057Q533 1102 655 1102Q860 1102 956 964Q1053 826 1053 546ZM864 540Q864 652 850 732Q836 812 805 864Q774 915 726 939Q678 963 609 963Q538 963 484 940Q429 917 392 866Q356 815 337 732Q318 649 318 529Q318 413 337 334Q356 255 392 206Q429 156 483 134Q537 113 607 113Q673 113 721 136Q769 159 801 210Q833 261 848 342Q864 424 864 540Z" fill="#AEB6D4"/><path transform="translate(235.34,142.00) scale(0.00757,-0.00757)" d="M314 1082V396Q314 317 326 264Q337 211 363 178Q389 146 432 132Q474 119 537 119Q601 119 652 142Q704 164 740 206Q777 249 797 312Q817 374 817 455V1082H997V231Q997 197 998 160Q998 122 999 88Q1000 55 1001 31Q1002 7 1003 0H833Q832 5 831 27Q830 49 828 78Q827 106 826 136Q825 165 825 185H822Q796 138 765 100Q734 62 693 36Q652 9 599 -6Q546 -20 476 -20Q386 -20 321 2Q256 24 214 70Q172 116 152 188Q133 260 133 361V1082Z" fill="#AEB6D4"/><path transform="translate(243.96,142.00) scale(0.00757,-0.00757)" d="M137 1312V1484H317V1312ZM137 0V1082H317V0Z" fill="#AEB6D4"/><path transform="translate(247.40,142.00) scale(0.00757,-0.00757)" d="M138 0V1484H318V0Z" fill="#AEB6D4"/><path transform="translate(250.85,142.00) scale(0.00757,-0.00757)" d="M554 8Q513 -3 470 -10Q428 -16 372 -16Q156 -16 156 229V951H31V1082H163L216 1324H336V1082H536V951H336V268Q336 190 362 158Q387 127 450 127Q476 127 500 131Q525 135 554 141Z" fill="#AEB6D4"/><path transform="translate(259.46,142.00) scale(0.00757,-0.00757)" d="M1193 -12Q1097 -12 1025 21Q953 54 895 115Q865 89 827 65Q789 41 742 22Q696 3 642 -8Q587 -20 523 -20Q406 -20 320 10Q235 40 180 92Q125 145 98 216Q72 288 72 371Q72 450 98 514Q123 579 168 632Q214 684 277 726Q340 767 415 800Q397 834 382 872Q368 911 357 950Q346 989 340 1028Q334 1067 334 1102Q334 1168 354 1226Q374 1283 416 1326Q459 1368 526 1392Q592 1417 685 1417Q758 1417 820 1398Q881 1379 926 1343Q971 1307 996 1254Q1021 1201 1021 1133Q1021 1058 988 1000Q955 941 899 895Q843 849 769 812Q695 774 612 741Q674 627 747 526Q820 426 905 329Q966 419 1006 518Q1047 618 1076 739L1221 696Q1186 557 1132 444Q1079 330 1009 227Q1062 173 1115 151Q1168 129 1217 129Q1249 129 1278 132Q1308 136 1334 145V10Q1306 -1 1268 -6Q1231 -12 1193 -12ZM869 1133Q869 1170 856 1200Q842 1230 818 1252Q794 1273 760 1284Q725 1296 683 1296Q587 1296 537 1244Q487 1193 487 1102Q487 1043 506 978Q524 914 552 858Q617 884 675 912Q733 939 776 972Q819 1004 844 1044Q869 1083 869 1133ZM795 217Q706 322 624 437Q542 552 476 674Q363 626 302 552Q240 478 240 373Q240 318 258 270Q275 223 311 188Q347 152 402 132Q456 111 529 111Q573 111 612 120Q652 130 686 145Q720 160 748 179Q775 198 795 217Z" fill="#AEB6D4"/><path transform="translate(274.10,142.00) scale(0.00757,-0.00757)" d="M142 0V830Q142 864 142 900Q141 935 140 968Q139 1001 138 1030Q137 1059 136 1082H306Q307 1059 308 1030Q310 1000 312 969Q313 938 314 910Q314 881 314 861H318Q337 923 358 968Q380 1014 409 1044Q438 1073 478 1088Q518 1102 575 1102Q597 1102 617 1098Q637 1095 648 1092V927Q630 932 606 934Q582 937 552 937Q490 937 446 909Q403 881 376 832Q348 782 335 714Q322 645 322 564V0Z" fill="#AEB6D4"/><path transform="translate(279.27,142.00) scale(0.00757,-0.00757)" d="M314 1082V396Q314 317 326 264Q337 211 363 178Q389 146 432 132Q474 119 537 119Q601 119 652 142Q704 164 740 206Q777 249 797 312Q817 374 817 455V1082H997V231Q997 197 998 160Q998 122 999 88Q1000 55 1001 31Q1002 7 1003 0H833Q832 5 831 27Q830 49 828 78Q827 106 826 136Q825 165 825 185H822Q796 138 765 100Q734 62 693 36Q652 9 599 -6Q546 -20 476 -20Q386 -20 321 2Q256 24 214 70Q172 116 152 188Q133 260 133 361V1082Z" fill="#AEB6D4"/><path transform="translate(287.89,142.00) scale(0.00757,-0.00757)" d="M825 0V686Q825 765 814 818Q802 871 776 904Q750 936 708 950Q665 963 602 963Q538 963 486 940Q435 918 398 876Q362 833 342 770Q322 708 322 627V0H142V851Q142 885 142 922Q141 960 140 994Q139 1027 138 1051Q137 1075 136 1082H306Q307 1077 308 1055Q309 1033 310 1004Q312 976 313 946Q314 917 314 897H317Q343 944 374 982Q405 1020 446 1046Q487 1073 540 1088Q593 1102 663 1102Q753 1102 818 1080Q883 1058 925 1012Q967 966 986 894Q1006 821 1006 721V0Z" fill="#AEB6D4"/><rect x="32" y="160" width="14" height="2" fill="#FF6A3D"/><path transform="translate(54.00,166.00) scale(0.00659,-0.00659)" d="M794 190H1147V0H118V190H513V1294H223V1484H794Z" fill="#FF6A3D"/><path transform="translate(62.70,166.00) scale(0.00659,-0.00659)" d="M626 -20Q509 -20 412 14Q315 49 246 120Q177 190 138 296Q100 403 100 546Q100 701 144 807Q189 913 263 978Q337 1044 432 1073Q528 1102 630 1102Q758 1102 852 1058Q945 1013 1007 933Q1069 853 1099 742Q1129 630 1129 495V487H395Q395 419 410 360Q426 302 456 260Q487 217 533 192Q579 168 640 168Q714 168 771 200Q828 231 848 297L1113 274Q1095 228 1060 176Q1024 124 966 80Q908 37 824 8Q741 -20 626 -20ZM626 925Q583 925 542 910Q502 896 470 864Q439 833 419 783Q399 733 397 663H857Q853 728 834 777Q814 826 784 859Q753 892 712 908Q672 925 626 925Z" fill="#FF6A3D"/><path transform="translate(71.40,166.00) scale(0.00659,-0.00659)" d="M328 892H161V1082H342L430 1364H606V1082H991V892H606V362Q606 326 608 293Q611 260 628 234Q644 209 680 194Q715 178 780 178Q844 178 908 185Q972 192 1035 205V19Q998 13 962 7Q925 1 886 -4Q848 -8 805 -10Q762 -13 711 -13Q625 -13 563 2Q501 16 458 41Q416 66 390 100Q363 134 349 172Q335 211 330 253Q326 295 326 336Z" fill="#FF6A3D"/><path transform="translate(80.10,166.00) scale(0.00659,-0.00659)" d="M1104 316Q1104 238 1072 176Q1039 114 977 70Q915 27 825 4Q735 -20 620 -20Q517 -20 434 -5Q351 10 288 44Q226 79 184 134Q142 189 121 270L368 307Q380 262 401 234Q422 206 453 191Q484 176 526 171Q567 166 620 166Q668 166 710 172Q751 177 782 190Q812 204 829 228Q846 253 846 290Q846 332 822 356Q797 381 754 396Q712 412 654 424Q597 435 532 450Q464 465 398 486Q332 507 280 543Q228 579 196 634Q164 690 164 775Q164 852 194 912Q224 973 282 1016Q340 1058 426 1080Q511 1103 622 1103Q710 1103 786 1086Q862 1070 922 1034Q982 999 1022 944Q1063 889 1079 811L830 785Q823 824 805 850Q787 875 760 890Q734 905 699 910Q664 916 622 916Q522 916 472 890Q422 865 422 805Q422 768 442 746Q463 724 500 710Q538 695 590 684Q641 674 702 659Q777 643 850 622Q922 600 978 562Q1035 525 1070 466Q1104 407 1104 316Z" fill="#FF6A3D"/><path transform="translate(88.81,166.00) scale(0.00659,-0.00659)" d="M624 -20Q495 -20 398 20Q302 60 238 133Q174 206 142 308Q110 411 110 535Q110 670 145 776Q180 881 246 954Q312 1026 408 1064Q505 1102 628 1102Q733 1102 814 1074Q896 1046 955 998Q1014 949 1050 883Q1087 817 1101 741L818 727Q806 810 758 860Q710 909 622 909Q509 909 457 816Q405 723 405 546Q405 172 626 172Q706 172 760 222Q814 273 827 373L1109 360Q1099 285 1064 216Q1028 148 968 96Q907 43 821 12Q735 -20 624 -20Z" fill="#FF6A3D"/><path transform="translate(97.51,166.00) scale(0.00659,-0.00659)" d="M420 866Q477 990 563 1046Q649 1102 768 1102Q866 1102 930 1070Q995 1038 1034 982Q1072 926 1088 850Q1104 774 1104 686V0H824V621Q824 684 817 734Q810 784 791 819Q772 854 738 872Q704 891 651 891Q600 891 558 868Q517 846 487 804Q457 763 440 706Q424 648 424 579V0H143V1484H424V1079Q424 1047 423 1014Q422 982 420 954Q419 925 418 902Q417 879 416 866Z" fill="#FF6A3D"/><path transform="translate(106.21,166.00) scale(0.00659,-0.00659)" d="M439 -20Q361 -20 300 2Q238 23 195 64Q152 106 129 167Q106 228 106 306Q106 402 138 468Q170 533 226 574Q282 614 358 632Q435 651 523 652L746 656V711Q746 770 736 810Q725 849 706 874Q687 899 660 910Q632 920 598 920Q567 920 541 913Q515 906 496 888Q477 871 465 842Q453 812 448 767L155 781Q167 852 198 910Q228 969 282 1012Q337 1055 418 1078Q499 1102 610 1102Q812 1102 920 1003Q1027 904 1027 712V320Q1027 282 1030 252Q1034 222 1044 202Q1053 181 1070 170Q1088 160 1116 160Q1148 160 1178 166V14Q1153 8 1133 3Q1113 -2 1093 -5Q1073 -8 1050 -10Q1028 -12 998 -12Q892 -12 842 40Q791 92 781 193H775Q747 143 714 104Q682 64 642 36Q601 9 551 -6Q501 -20 439 -20ZM746 501 612 499Q567 498 528 492Q489 487 460 470Q432 452 416 418Q399 385 399 328Q399 251 430 214Q460 176 519 176Q573 176 615 199Q657 222 686 260Q716 297 731 346Q746 395 746 446Z" fill="#FF6A3D"/><path transform="translate(114.91,166.00) scale(0.00659,-0.00659)" d="M328 892H161V1082H342L430 1364H606V1082H991V892H606V362Q606 326 608 293Q611 260 628 234Q644 209 680 194Q715 178 780 178Q844 178 908 185Q972 192 1035 205V19Q998 13 962 7Q925 1 886 -4Q848 -8 805 -10Q762 -13 711 -13Q625 -13 563 2Q501 16 458 41Q416 66 390 100Q363 134 349 172Q335 211 330 253Q326 295 326 336Z" fill="#FF6A3D"/><path transform="translate(123.61,166.00) scale(0.00659,-0.00659)" d="M501 0V658Q501 734 496 785Q492 836 482 866Q472 897 455 910Q438 923 414 923Q389 923 368 898Q348 874 334 830Q320 785 312 722Q304 659 304 582V0H75V851Q75 885 74 922Q74 960 73 994Q72 1027 71 1051Q70 1075 69 1082H278Q279 1077 280 1056Q281 1036 282 1010Q283 983 284 955Q284 927 284 907H286Q299 946 317 982Q335 1017 360 1044Q386 1071 421 1086Q456 1102 502 1102Q590 1102 634 1054Q677 1006 696 906H698Q716 953 738 990Q759 1026 787 1051Q815 1076 851 1089Q887 1102 934 1102Q995 1102 1037 1080Q1079 1058 1105 1012Q1131 966 1142 894Q1154 822 1154 721V0H926V658Q926 734 922 785Q917 836 907 866Q897 897 880 910Q863 923 839 923Q788 923 758 842Q729 762 729 601V0Z" fill="#FF6A3D"/><path transform="translate(132.31,166.00) scale(0.00659,-0.00659)" d="M439 -20Q361 -20 300 2Q238 23 195 64Q152 106 129 167Q106 228 106 306Q106 402 138 468Q170 533 226 574Q282 614 358 632Q435 651 523 652L746 656V711Q746 770 736 810Q725 849 706 874Q687 899 660 910Q632 920 598 920Q567 920 541 913Q515 906 496 888Q477 871 465 842Q453 812 448 767L155 781Q167 852 198 910Q228 969 282 1012Q337 1055 418 1078Q499 1102 610 1102Q812 1102 920 1003Q1027 904 1027 712V320Q1027 282 1030 252Q1034 222 1044 202Q1053 181 1070 170Q1088 160 1116 160Q1148 160 1178 166V14Q1153 8 1133 3Q1113 -2 1093 -5Q1073 -8 1050 -10Q1028 -12 998 -12Q892 -12 842 40Q791 92 781 193H775Q747 143 714 104Q682 64 642 36Q601 9 551 -6Q501 -20 439 -20ZM746 501 612 499Q567 498 528 492Q489 487 460 470Q432 452 416 418Q399 385 399 328Q399 251 430 214Q460 176 519 176Q573 176 615 199Q657 222 686 260Q716 297 731 346Q746 395 746 446Z" fill="#FF6A3D"/><path transform="translate(141.01,166.00) scale(0.00659,-0.00659)" d="M1081 848Q1034 856 982 862Q931 867 869 867Q785 867 722 833Q658 799 616 740Q573 682 552 604Q530 526 530 438V0H250V701Q250 757 244 815Q238 873 230 924Q222 976 213 1017Q204 1058 198 1082H469Q475 1060 482 1032Q489 1005 495 974Q501 944 506 913Q512 882 515 854H519Q540 911 568 957Q597 1003 639 1035Q681 1067 739 1084Q797 1102 875 1102Q931 1102 985 1097Q1039 1092 1081 1085Z" fill="#FF6A3D"/><path transform="translate(149.71,166.00) scale(0.00659,-0.00659)" d="M864 0 575 490 454 406V0H173V1484H454V634L840 1082H1142L762 660L1171 0Z" fill="#FF6A3D"/><path transform="translate(158.42,166.00) scale(0.00659,-0.00659)" d="M626 -20Q509 -20 412 14Q315 49 246 120Q177 190 138 296Q100 403 100 546Q100 701 144 807Q189 913 263 978Q337 1044 432 1073Q528 1102 630 1102Q758 1102 852 1058Q945 1013 1007 933Q1069 853 1099 742Q1129 630 1129 495V487H395Q395 419 410 360Q426 302 456 260Q487 217 533 192Q579 168 640 168Q714 168 771 200Q828 231 848 297L1113 274Q1095 228 1060 176Q1024 124 966 80Q908 37 824 8Q741 -20 626 -20ZM626 925Q583 925 542 910Q502 896 470 864Q439 833 419 783Q399 733 397 663H857Q853 728 834 777Q814 826 784 859Q753 892 712 908Q672 925 626 925Z" fill="#FF6A3D"/><path transform="translate(167.12,166.00) scale(0.00659,-0.00659)" d="M328 892H161V1082H342L430 1364H606V1082H991V892H606V362Q606 326 608 293Q611 260 628 234Q644 209 680 194Q715 178 780 178Q844 178 908 185Q972 192 1035 205V19Q998 13 962 7Q925 1 886 -4Q848 -8 805 -10Q762 -13 711 -13Q625 -13 563 2Q501 16 458 41Q416 66 390 100Q363 134 349 172Q335 211 330 253Q326 295 326 336Z" fill="#FF6A3D"/><path transform="translate(175.82,166.00) scale(0.00659,-0.00659)" d="M794 190H1147V0H118V190H513V892H223V1082H794ZM513 1277V1484H794V1277Z" fill="#FF6A3D"/><path transform="translate(184.52,166.00) scale(0.00659,-0.00659)" d="M824 0V619Q824 760 786 826Q747 892 653 892Q602 892 560 870Q518 847 488 806Q458 764 441 706Q424 649 424 580V0H143V840Q143 875 142 912Q142 949 140 982Q139 1016 138 1042Q137 1069 135 1082H403Q405 1070 407 1044Q409 1017 411 985Q413 953 414 921Q416 889 416 867H420Q477 991 563 1047Q649 1103 768 1103Q856 1103 920 1074Q983 1046 1024 992Q1065 939 1084 862Q1104 785 1104 687V0Z" fill="#FF6A3D"/><path transform="translate(193.22,166.00) scale(0.00659,-0.00659)" d="M616 -434Q517 -434 440 -412Q362 -391 306 -352Q251 -314 216 -260Q182 -207 169 -143L450 -110Q465 -175 512 -213Q559 -251 624 -251Q666 -251 704 -236Q741 -222 769 -188Q797 -155 813 -100Q829 -44 829 37Q829 65 829 96Q829 126 830 152Q831 182 831 211H829Q780 106 694 59Q608 12 501 12Q406 12 335 51Q264 90 217 160Q170 231 147 330Q124 429 124 550Q124 675 148 776Q173 877 222 949Q272 1021 347 1060Q422 1099 522 1099Q568 1099 613 1088Q658 1078 698 1055Q738 1032 772 996Q805 959 829 908H834Q834 929 836 956Q837 984 839 1010Q841 1035 844 1055Q846 1075 848 1082H1114Q1112 1046 1110 981Q1108 916 1108 832V33Q1108 -85 1074 -172Q1040 -260 976 -318Q913 -376 822 -405Q731 -434 616 -434ZM831 556Q831 658 812 726Q792 793 762 833Q731 873 694 890Q657 906 622 906Q576 906 538 886Q500 865 473 822Q446 778 432 711Q417 644 417 550Q417 376 471 292Q525 207 620 207Q655 207 692 222Q730 237 760 276Q791 316 811 384Q831 451 831 556Z" fill="#FF6A3D"/><path transform="translate(201.92,166.00) scale(0.00659,-0.00659)" d="M470 0V305H759V0Z" fill="#FF6A3D"/><path transform="translate(210.62,166.00) scale(0.00659,-0.00659)" d="M624 -20Q495 -20 398 20Q302 60 238 133Q174 206 142 308Q110 411 110 535Q110 670 145 776Q180 881 246 954Q312 1026 408 1064Q505 1102 628 1102Q733 1102 814 1074Q896 1046 955 998Q1014 949 1050 883Q1087 817 1101 741L818 727Q806 810 758 860Q710 909 622 909Q509 909 457 816Q405 723 405 546Q405 172 626 172Q706 172 760 222Q814 273 827 373L1109 360Q1099 285 1064 216Q1028 148 968 96Q907 43 821 12Q735 -20 624 -20Z" fill="#FF6A3D"/><path transform="translate(219.33,166.00) scale(0.00659,-0.00659)" d="M1137 542Q1137 418 1106 315Q1075 212 1010 138Q946 63 846 22Q747 -20 610 -20Q478 -20 381 21Q284 62 220 136Q155 210 124 314Q92 417 92 542Q92 663 122 766Q152 868 216 943Q279 1018 378 1060Q478 1102 616 1102Q762 1102 862 1060Q961 1018 1022 944Q1084 869 1110 766Q1137 664 1137 542ZM843 542Q843 638 830 708Q818 777 792 822Q765 867 722 888Q680 909 620 909Q496 909 442 821Q387 733 387 542Q387 349 442 260Q498 172 607 172Q669 172 714 194Q759 215 788 260Q816 305 830 375Q843 445 843 542Z" fill="#FF6A3D"/><path transform="translate(228.03,166.00) scale(0.00659,-0.00659)" d="M501 0V658Q501 734 496 785Q492 836 482 866Q472 897 455 910Q438 923 414 923Q389 923 368 898Q348 874 334 830Q320 785 312 722Q304 659 304 582V0H75V851Q75 885 74 922Q74 960 73 994Q72 1027 71 1051Q70 1075 69 1082H278Q279 1077 280 1056Q281 1036 282 1010Q283 983 284 955Q284 927 284 907H286Q299 946 317 982Q335 1017 360 1044Q386 1071 421 1086Q456 1102 502 1102Q590 1102 634 1054Q677 1006 696 906H698Q716 953 738 990Q759 1026 787 1051Q815 1076 851 1089Q887 1102 934 1102Q995 1102 1037 1080Q1079 1058 1105 1012Q1131 966 1142 894Q1154 822 1154 721V0H926V658Q926 734 922 785Q917 836 907 866Q897 897 880 910Q863 923 839 923Q788 923 758 842Q729 762 729 601V0Z" fill="#FF6A3D"/></svg>