<svg xmlns="http://www.w3.org/2000/svg" width="600" height="196" viewBox="0 0 600 196" font-family="Liberation Sans,Arial,sans-serif" role="img" aria-label="Cura — AI front desk for dental practices (LIVE)"><defs><linearGradient id="pcura" x1="0" y1="0" x2="0.4" y2="1"><stop offset="0" stop-color="#11183A"/><stop offset="1" stop-color="#0A0E1C"/></linearGradient><radialGradient id="glcura" cx="0.82" cy="0.5" r="0.5"><stop offset="0" stop-color="#5965FF" stop-opacity="0.20"/><stop offset="1" stop-color="#5965FF" stop-opacity="0"/></radialGradient><radialGradient id="sdcura" cx="0.5" cy="0.5" r="0.5"><stop offset="0" stop-color="#36C28B"/><stop offset="0.5" stop-color="#36C28B" stop-opacity="0.45"/><stop offset="1" stop-color="#36C28B" stop-opacity="0"/></radialGradient><clipPath id="clcura"><rect x="3" y="3" width="594" height="190" rx="20"/></clipPath></defs><style>@keyframes blcura{0%,100%{opacity:1}50%{opacity:.45}}.sdcura{animation:blcura 3.2s ease-in-out infinite}@keyframes rgcura{0%{opacity:.15}50%{opacity:.5}100%{opacity:.15}}</style><g clip-path="url(#clcura)"><rect x="3" y="3" width="594" height="190" rx="20" fill="url(#pcura)"/><rect x="3" y="3" width="594" height="190" fill="url(#glcura)"/><path d="M0,150 L0,150.0 L12,151.9 L24,153.7 L36,155.3 L48,156.6 L60,157.5 L72,157.9 L84,158.0 L96,157.5 L108,156.7 L120,155.4 L132,153.8 L144,152.1 L156,150.2 L168,148.3 L180,146.5 L192,144.9 L204,143.5 L216,142.6 L228,142.1 L240,142.0 L252,142.4 L264,143.3 L276,144.5 L288,146.0 L300,147.8 L312,149.7 L324,151.6 L336,153.4 L348,155.0 L360,156.3 L372,157.3 L384,157.9 L396,158.0 L408,157.6 L420,156.8 L432,155.7 L444,154.1 L456,152.4 L468,150.5 L480,148.6 L492,146.8 L504,145.1 L516,143.8 L528,142.7 L540,142.2 L552,142.0 L564,142.3 L576,143.1 L588,144.2 L600,145.7" fill="none" stroke="#5965FF" stroke-width="1" opacity="0.10"/><path d="M0,168 L0,174.7 L12,175.6 L24,176.0 L36,175.9 L48,175.4 L60,174.5 L72,173.2 L84,171.6 L96,169.8 L108,167.9 L120,166.0 L132,164.2 L144,162.6 L156,161.4 L168,160.5 L180,160.1 L192,160.1 L204,160.5 L216,161.4 L228,162.7 L240,164.3 L252,166.1 L264,168.0 L276,169.9 L288,171.7 L300,173.3 L312,174.5 L324,175.4 L336,175.9 L348,176.0 L360,175.5 L372,174.7 L384,173.4 L396,171.9 L408,170.1 L420,168.2 L432,166.3 L444,164.5 L456,162.9 L468,161.6 L480,160.6 L492,160.1 L504,160.0 L516,160.4 L528,161.2 L540,162.5 L552,164.0 L564,165.7 L576,167.6 L588,169.5 L600,171.4" fill="none" stroke="#5965FF" stroke-width="1" opacity="0.10"/><path d="M0,186 L0,193.3 L12,192.3 L24,190.9 L36,189.3 L48,187.4 L60,185.5 L72,183.6 L84,181.9 L96,180.4 L108,179.2 L120,178.4 L132,178.0 L144,178.1 L156,178.7 L168,179.6 L180,180.9 L192,182.6 L204,184.4 L216,186.3 L228,188.2 L240,190.0 L252,191.5 L264,192.7 L276,193.6 L288,194.0 L300,193.9 L312,193.4 L324,192.5 L336,191.2 L348,189.6 L360,187.8 L372,185.9 L384,184.0 L396,182.2 L408,180.6 L420,179.4 L432,178.5 L444,178.1 L456,178.1 L468,178.5 L480,179.4 L492,180.7 L504,182.3 L516,184.0 L528,185.9 L540,187.9 L552,189.6 L564,191.2 L576,192.5 L588,193.4 L600,193.9" fill="none" stroke="#5965FF" stroke-width="1" opacity="0.10"/></g><rect x="3" y="3" width="594" height="190" rx="20" fill="none" stroke="#5965FF" stroke-width="1.2" opacity="0.32"/><circle class="sdcura" cx="34" cy="40" r="11" fill="url(#sdcura)"/><circle cx="34" cy="40" r="4.5" fill="#36C28B"/><path transform="translate(52.00,45.00) scale(0.00610,-0.00610)" d="M211 0V1349H506V228H1122V0Z" fill="#36C28B"/><path transform="translate(61.50,45.00) scale(0.00610,-0.00610)" d="M157 1349H1073V1121H762V228H1073V0H157V228H468V1121H157Z" fill="#36C28B"/><path transform="translate(71.00,45.00) scale(0.00610,-0.00610)" d="M766 0H467L3 1349H311L544 574Q558 529 571.0 482.0Q584 435 595 396Q607 350 618 308Q628 349 639 394Q649 432 662.5 479.5Q676 527 690 574L922 1349H1227Z" fill="#36C28B"/><path transform="translate(80.50,45.00) scale(0.00610,-0.00610)" d="M137 0V1349H1105V1121H432V797H1044V569H432V228H1146V0Z" fill="#36C28B"/><path transform="translate(465.49,45.00) scale(0.00610,-0.00610)" d="M237 0V1349H428V156H1100V0Z" fill="#737EA6"/><path transform="translate(474.99,45.00) scale(0.00610,-0.00610)" d="M202 1349H1025V1193H709V156H1025V0H202V156H518V1193H202Z" fill="#737EA6"/><path transform="translate(484.49,45.00) scale(0.00610,-0.00610)" d="M713 0H515L10 1349H211L531 447Q547 402 561.5 353.5Q576 305 588 263Q602 215 615 168Q627 213 641 261Q653 302 668.0 351.0Q683 400 699 447L1017 1349H1218Z" fill="#737EA6"/><path transform="translate(493.99,45.00) scale(0.00610,-0.00610)" d="M162 0V1349H1081V1193H353V771H1021V617H353V156H1122V0Z" fill="#737EA6"/><path transform="translate(512.99,45.00) scale(0.00610,-0.00610)" d="M496 420V719H731V420Z" fill="#737EA6"/><path transform="translate(532.00,45.00) scale(0.00610,-0.00610)" d="M1128 370Q1128 285 1097.0 213.5Q1066 142 1002.5 90.0Q939 38 841.5 9.0Q744 -20 610 -20Q376 -20 245.5 72.0Q115 164 79 338L264 375Q276 320 300.0 275.0Q324 230 366.0 197.5Q408 165 469.0 147.0Q530 129 615 129Q687 129 746.5 142.5Q806 156 848.5 185.0Q891 214 915.0 259.0Q939 304 939 367Q939 437 906.5 481.0Q874 525 821.0 553.0Q768 581 701.5 598.5Q635 616 567 633Q517 646 466.0 660.5Q415 675 368.0 694.5Q321 714 280.5 740.5Q240 767 209.5 804.5Q179 842 162.0 892.5Q145 943 145 1010Q145 1106 181.0 1174.5Q217 1243 280.0 1286.5Q343 1330 429.0 1350.0Q515 1370 615 1370Q731 1370 812.5 1349.5Q894 1329 950.5 1288.0Q1007 1247 1041.0 1186.5Q1075 1126 1095 1046L907 1013Q896 1064 874.5 1104.0Q853 1144 817.5 1171.0Q782 1198 732.0 1212.0Q682 1226 614 1226Q534 1226 480.0 1209.5Q426 1193 393.0 1164.5Q360 1136 345.5 1097.0Q331 1058 331 1013Q331 953 357.5 915.5Q384 878 429.5 853.5Q475 829 535.5 813.0Q596 797 665 779Q720 765 776.0 749.5Q832 734 883.5 713.0Q935 692 979.5 663.5Q1024 635 1057.0 594.0Q1090 553 1109.0 498.0Q1128 443 1128 370Z" fill="#737EA6"/><path transform="translate(541.50,45.00) scale(0.00610,-0.00610)" d="M1101 111Q1116 111 1131.0 113.0Q1146 115 1160 118V6Q1126 -2 1092.5 -6.0Q1059 -10 1021 -10Q970 -10 933.5 3.5Q897 17 874.0 44.5Q851 72 839.0 112.5Q827 153 824 207H818Q790 155 756.0 113.0Q722 71 678.0 41.5Q634 12 577.0 -4.0Q520 -20 446 -20Q288 -20 208.0 66.0Q128 152 128 302Q128 409 167.5 477.5Q207 546 271.0 585.0Q335 624 416.5 639.5Q498 655 582 656L818 660V719Q818 786 804.5 833.0Q791 880 763.5 909.0Q736 938 694.0 951.5Q652 965 596 965Q546 965 505.5 957.5Q465 950 436.0 930.5Q407 911 388.5 877.5Q370 844 364 793L176 810Q186 874 213.5 927.5Q241 981 291.0 1020.0Q341 1059 416.5 1080.5Q492 1102 599 1102Q799 1102 899.5 1008.5Q1000 915 1000 738V272Q1000 192 1021.0 151.5Q1042 111 1101 111ZM492 117Q575 117 636.0 148.5Q697 180 737.5 228.0Q778 276 798.0 334.0Q818 392 818 445V534L628 530Q573 529 517.5 521.5Q462 514 417.5 490.0Q373 466 345.0 420.5Q317 375 317 299Q317 217 361.5 167.0Q406 117 492 117Z" fill="#737EA6"/><path transform="translate(551.00,45.00) scale(0.00610,-0.00610)" d="M1101 111Q1116 111 1131.0 113.0Q1146 115 1160 118V6Q1126 -2 1092.5 -6.0Q1059 -10 1021 -10Q970 -10 933.5 3.5Q897 17 874.0 44.5Q851 72 839.0 112.5Q827 153 824 207H818Q790 155 756.0 113.0Q722 71 678.0 41.5Q634 12 577.0 -4.0Q520 -20 446 -20Q288 -20 208.0 66.0Q128 152 128 302Q128 409 167.5 477.5Q207 546 271.0 585.0Q335 624 416.5 639.5Q498 655 582 656L818 660V719Q818 786 804.5 833.0Q791 880 763.5 909.0Q736 938 694.0 951.5Q652 965 596 965Q546 965 505.5 957.5Q465 950 436.0 930.5Q407 911 388.5 877.5Q370 844 364 793L176 810Q186 874 213.5 927.5Q241 981 291.0 1020.0Q341 1059 416.5 1080.5Q492 1102 599 1102Q799 1102 899.5 1008.5Q1000 915 1000 738V272Q1000 192 1021.0 151.5Q1042 111 1101 111ZM492 117Q575 117 636.0 148.5Q697 180 737.5 228.0Q778 276 798.0 334.0Q818 392 818 445V534L628 530Q573 529 517.5 521.5Q462 514 417.5 490.0Q373 466 345.0 420.5Q317 375 317 299Q317 217 361.5 167.0Q406 117 492 117Z" fill="#737EA6"/><path transform="translate(560.50,45.00) scale(0.00610,-0.00610)" d="M1128 370Q1128 285 1097.0 213.5Q1066 142 1002.5 90.0Q939 38 841.5 9.0Q744 -20 610 -20Q376 -20 245.5 72.0Q115 164 79 338L264 375Q276 320 300.0 275.0Q324 230 366.0 197.5Q408 165 469.0 147.0Q530 129 615 129Q687 129 746.5 142.5Q806 156 848.5 185.0Q891 214 915.0 259.0Q939 304 939 367Q939 437 906.5 481.0Q874 525 821.0 553.0Q768 581 701.5 598.5Q635 616 567 633Q517 646 466.0 660.5Q415 675 368.0 694.5Q321 714 280.5 740.5Q240 767 209.5 804.5Q179 842 162.0 892.5Q145 943 145 1010Q145 1106 181.0 1174.5Q217 1243 280.0 1286.5Q343 1330 429.0 1350.0Q515 1370 615 1370Q731 1370 812.5 1349.5Q894 1329 950.5 1288.0Q1007 1247 1041.0 1186.5Q1075 1126 1095 1046L907 1013Q896 1064 874.5 1104.0Q853 1144 817.5 1171.0Q782 1198 732.0 1212.0Q682 1226 614 1226Q534 1226 480.0 1209.5Q426 1193 393.0 1164.5Q360 1136 345.5 1097.0Q331 1058 331 1013Q331 953 357.5 915.5Q384 878 429.5 853.5Q475 829 535.5 813.0Q596 797 665 779Q720 765 776.0 749.5Q832 734 883.5 713.0Q935 692 979.5 663.5Q1024 635 1057.0 594.0Q1090 553 1109.0 498.0Q1128 443 1128 370Z" fill="#737EA6"/><circle cx="508" cy="104" r="4.5" fill="#5965FF"/><path d="M519.9,93.3 A16,16 0 0 1 519.1,115.5" fill="none" stroke="#5965FF" stroke-width="2.4" stroke-linecap="round" opacity="0.85"/><path d="M529.6,84.6 A29,29 0 0 1 528.1,124.9" fill="none" stroke="#5965FF" stroke-width="2.4" stroke-linecap="round" opacity="0.63"/><path d="M539.2,75.9 A42,42 0 0 1 537.2,134.2" fill="none" stroke="#5965FF" stroke-width="2.4" stroke-linecap="round" opacity="0.41"/><path transform="translate(32.00,112.00) scale(0.01611,-0.01611)" d="M795 212Q878 212 938.5 235.5Q999 259 1043.5 297.0Q1088 335 1117.5 383.0Q1147 431 1166 480L1423 383Q1392 307 1342.0 234.0Q1292 161 1217.0 105.0Q1142 49 1038.5 14.5Q935 -20 795 -20Q612 -20 478.0 34.5Q344 89 256.5 186.5Q169 284 126.5 418.0Q84 552 84 711Q84 876 126.5 1009.0Q169 1142 255.0 1235.5Q341 1329 472.5 1379.5Q604 1430 782 1430Q920 1430 1023.5 1401.0Q1127 1372 1202.5 1319.5Q1278 1267 1327.5 1195.5Q1377 1124 1405 1038L1145 967Q1131 1012 1102.0 1053.5Q1073 1095 1028.5 1127.0Q984 1159 924.0 1178.5Q864 1198 788 1198Q681 1198 604.0 1163.5Q527 1129 477.5 1065.0Q428 1001 404.5 911.5Q381 822 381 711Q381 601 404.5 509.5Q428 418 478.0 352.0Q528 286 606.5 249.0Q685 212 795 212Z" fill="#F6F1E6"/><path transform="translate(54.63,112.00) scale(0.01611,-0.01611)" d="M408 1082V475Q408 412 418.0 359.5Q428 307 451.0 269.5Q474 232 510.5 211.0Q547 190 600 190Q651 190 692.5 212.5Q734 235 764.0 276.5Q794 318 810.5 375.5Q827 433 827 502V1082H1108V242Q1108 208 1108.5 170.5Q1109 133 1110.5 99.5Q1112 66 1113.5 39.5Q1115 13 1116 0H848Q847 12 844.5 38.5Q842 65 840.5 97.0Q839 129 837.5 161.0Q836 193 836 215H831Q775 92 688.5 36.0Q602 -20 483 -20Q386 -20 318.0 12.0Q250 44 207.5 99.5Q165 155 146.0 231.0Q127 307 127 395V1082Z" fill="#F6F1E6"/><path transform="translate(73.59,112.00) scale(0.01611,-0.01611)" d="M143 0V828Q143 863 142.5 902.0Q142 941 140.5 976.5Q139 1012 138.0 1040.5Q137 1069 135 1082H403Q405 1070 407.0 1040.5Q409 1011 411.0 976.0Q413 941 414.5 906.5Q416 872 416 851H420Q441 910 462.0 956.5Q483 1003 511.5 1035.5Q540 1068 580.0 1085.5Q620 1103 679 1103Q704 1103 728.5 1098.5Q753 1094 766 1088V853Q739 859 711.5 863.5Q684 868 646 868Q541 868 482.5 783.0Q424 698 424 531V0Z" fill="#F6F1E6"/><path transform="translate(85.23,112.00) scale(0.01611,-0.01611)" d="M393 -20Q315 -20 253.5 1.5Q192 23 149.0 64.5Q106 106 83.0 167.0Q60 228 60 306Q60 402 93.5 467.5Q127 533 185.0 573.5Q243 614 321.0 632.5Q399 651 487 652L720 656V711Q720 770 709.5 809.5Q699 849 679.0 874.0Q659 899 629.5 909.5Q600 920 562 920Q527 920 499.5 913.0Q472 906 452.0 888.5Q432 871 419.5 841.5Q407 812 402 767L109 781Q121 852 153.0 910.5Q185 969 241.5 1012.0Q298 1055 380.5 1078.5Q463 1102 574 1102Q675 1102 754.0 1077.0Q833 1052 888.0 1002.5Q943 953 972.0 881.0Q1001 809 1001 714V320Q1001 282 1004.5 252.0Q1008 222 1017.5 201.5Q1027 181 1044.5 170.5Q1062 160 1090 160Q1122 160 1152 166V14Q1127 8 1107.0 3.0Q1087 -2 1067.0 -5.0Q1047 -8 1024.5 -10.0Q1002 -12 972 -12Q866 -12 815.5 40.0Q765 92 755 193H749Q693 92 605.5 36.0Q518 -20 393 -20ZM720 501 576 499Q531 497 490.5 491.5Q450 486 419.5 468.5Q389 451 371.0 418.0Q353 385 353 328Q353 251 388.5 213.5Q424 176 483 176Q537 176 581.0 199.0Q625 222 655.5 259.5Q686 297 703.0 346.0Q720 395 720 446Z" fill="#F6F1E6"/><path transform="translate(32.00,142.00) scale(0.00757,-0.00757)" d="M1167 0 1006 412H364L202 0H4L579 1409H796L1362 0ZM768 1026Q752 1066 737.5 1107.0Q723 1148 712.0 1181.5Q701 1215 693.5 1237.5Q686 1260 685 1265Q683 1260 676.0 1237.0Q669 1214 657.5 1180.0Q646 1146 631.5 1105.0Q617 1064 602 1024L422 561H949Z" fill="#AEB6D4"/><path transform="translate(42.34,142.00) scale(0.00757,-0.00757)" d="M189 0V1409H380V0Z" fill="#AEB6D4"/><path transform="translate(50.95,142.00) scale(0.00757,-0.00757)" d="M361 951V0H181V951H29V1082H181V1204Q181 1263 192.0 1313.5Q203 1364 232.5 1401.5Q262 1439 313.0 1460.5Q364 1482 445 1482Q477 1482 511.5 1479.0Q546 1476 572 1470V1333Q555 1336 532.5 1338.5Q510 1341 492 1341Q452 1341 426.5 1330.0Q401 1319 386.5 1298.5Q372 1278 366.5 1248.0Q361 1218 361 1179V1082H572V951Z" fill="#AEB6D4"/><path transform="translate(55.26,142.00) scale(0.00757,-0.00757)" d="M142 0V830Q142 864 141.5 899.5Q141 935 140.0 968.0Q139 1001 138.0 1030.0Q137 1059 136 1082H306Q307 1059 308.5 1029.5Q310 1000 311.5 969.0Q313 938 313.5 909.5Q314 881 314 861H318Q337 923 358.5 968.5Q380 1014 409.0 1043.5Q438 1073 478.0 1087.5Q518 1102 575 1102Q597 1102 617.0 1098.5Q637 1095 648 1092V927Q630 932 606.0 934.5Q582 937 552 937Q490 937 446.5 909.0Q403 881 375.5 831.5Q348 782 335.0 713.5Q322 645 322 564V0Z" fill="#AEB6D4"/><path transform="translate(60.42,142.00) scale(0.00757,-0.00757)" d="M1053 542Q1053 258 928.0 119.0Q803 -20 565 -20Q452 -20 363.0 14.0Q274 48 212.5 118.0Q151 188 118.5 293.5Q86 399 86 542Q86 1102 571 1102Q697 1102 788.5 1067.0Q880 1032 938.5 962.0Q997 892 1025.0 787.0Q1053 682 1053 542ZM864 542Q864 668 844.5 750.0Q825 832 787.5 881.0Q750 930 696.0 949.5Q642 969 574 969Q505 969 449.5 948.5Q394 928 355.0 878.5Q316 829 295.5 747.0Q275 665 275 542Q275 416 297.0 333.5Q319 251 357.5 202.0Q396 153 448.5 133.0Q501 113 563 113Q632 113 688.0 132.5Q744 152 783.0 201.0Q822 250 843.0 333.0Q864 416 864 542Z" fill="#AEB6D4"/><path transform="translate(69.04,142.00) scale(0.00757,-0.00757)" d="M825 0V686Q825 765 813.5 818.0Q802 871 776.0 903.5Q750 936 707.5 949.5Q665 963 602 963Q538 963 486.5 940.5Q435 918 398.5 875.5Q362 833 342.0 770.5Q322 708 322 627V0H142V851Q142 885 141.5 922.5Q141 960 140.0 993.5Q139 1027 138.0 1051.0Q137 1075 136 1082H306Q307 1077 308.0 1055.0Q309 1033 310.5 1004.5Q312 976 313.0 946.5Q314 917 314 897H317Q343 944 374.0 982.0Q405 1020 446.0 1046.5Q487 1073 540.0 1087.5Q593 1102 663 1102Q753 1102 818.0 1080.0Q883 1058 925.0 1012.0Q967 966 986.5 893.5Q1006 821 1006 721V0Z" fill="#AEB6D4"/><path transform="translate(77.66,142.00) scale(0.00757,-0.00757)" d="M554 8Q513 -3 470.5 -9.5Q428 -16 372 -16Q156 -16 156 229V951H31V1082H163L216 1324H336V1082H536V951H336V268Q336 190 361.5 158.5Q387 127 450 127Q476 127 500.5 131.0Q525 135 554 141Z" fill="#AEB6D4"/><path transform="translate(86.27,142.00) scale(0.00757,-0.00757)" d="M821 174Q771 70 688.5 25.0Q606 -20 484 -20Q279 -20 182.5 118.0Q86 256 86 536Q86 1102 484 1102Q607 1102 689.0 1057.0Q771 1012 821 914H823Q823 924 822.5 945.5Q822 967 821.5 990.5Q821 1014 821.0 1035.0Q821 1056 821 1065V1484H1001V223Q1001 184 1001.5 148.0Q1002 112 1003.0 82.0Q1004 52 1005.0 30.5Q1006 9 1007 0H835Q833 10 831.5 28.5Q830 47 828.5 71.0Q827 95 826.0 121.5Q825 148 825 174ZM275 542Q275 430 289.0 350.0Q303 270 334.0 218.5Q365 167 413.0 143.0Q461 119 530 119Q601 119 655.5 142.0Q710 165 746.5 216.5Q783 268 802.0 351.0Q821 434 821 554Q821 669 802.0 748.5Q783 828 746.0 877.0Q709 926 655.5 947.5Q602 969 532 969Q466 969 418.0 946.0Q370 923 338.0 872.0Q306 821 290.5 739.5Q275 658 275 542Z" fill="#AEB6D4"/><path transform="translate(94.89,142.00) scale(0.00757,-0.00757)" d="M276 503Q276 418 293.5 346.5Q311 275 347.5 223.5Q384 172 441.0 143.5Q498 115 578 115Q695 115 765.5 162.0Q836 209 861 281L1019 236Q1002 191 971.5 145.5Q941 100 890.0 63.5Q839 27 762.5 3.5Q686 -20 578 -20Q338 -20 212.5 123.0Q87 266 87 548Q87 700 125.0 805.5Q163 911 229.0 977.0Q295 1043 383.0 1072.5Q471 1102 571 1102Q707 1102 798.5 1058.0Q890 1014 945.5 936.5Q1001 859 1024.5 754.0Q1048 649 1048 527V503ZM862 641Q847 812 775.0 890.5Q703 969 568 969Q523 969 473.5 954.5Q424 940 382.0 903.0Q340 866 311.0 802.5Q282 739 278 641Z" fill="#AEB6D4"/><path transform="translate(103.51,142.00) scale(0.00757,-0.00757)" d="M950 299Q950 223 920.5 163.5Q891 104 835.0 63.5Q779 23 697.5 1.5Q616 -20 511 -20Q417 -20 341.5 -5.5Q266 9 209.0 41.0Q152 73 113.5 125.5Q75 178 57 254L216 285Q239 198 311.0 157.5Q383 117 511 117Q569 117 617.5 125.0Q666 133 701.0 152.5Q736 172 755.5 204.5Q775 237 775 285Q775 334 752.0 365.5Q729 397 688.0 418.0Q647 439 588.5 454.5Q530 470 460 489Q395 506 331.0 527.0Q267 548 215.5 582.5Q164 617 132.0 668.0Q100 719 100 796Q100 944 205.5 1021.5Q311 1099 513 1099Q692 1099 797.5 1036.0Q903 973 931 834L769 814Q760 856 736.0 884.5Q712 913 678.0 930.5Q644 948 601.5 955.5Q559 963 513 963Q391 963 333.0 926.0Q275 889 275 814Q275 770 296.5 741.5Q318 713 356.5 693.5Q395 674 449.0 659.5Q503 645 568 629Q611 618 656.0 605.5Q701 593 743.5 575.5Q786 558 823.5 534.5Q861 511 889.0 478.0Q917 445 933.5 401.0Q950 357 950 299Z" fill="#AEB6D4"/><path transform="translate(111.26,142.00) scale(0.00757,-0.00757)" d="M816 0 450 494 318 385V0H138V1484H318V557L793 1082H1004L565 617L1027 0Z" fill="#AEB6D4"/><path transform="translate(123.32,142.00) scale(0.00757,-0.00757)" d="M361 951V0H181V951H29V1082H181V1204Q181 1263 192.0 1313.5Q203 1364 232.5 1401.5Q262 1439 313.0 1460.5Q364 1482 445 1482Q477 1482 511.5 1479.0Q546 1476 572 1470V1333Q555 1336 532.5 1338.5Q510 1341 492 1341Q452 1341 426.5 1330.0Q401 1319 386.5 1298.5Q372 1278 366.5 1248.0Q361 1218 361 1179V1082H572V951Z" fill="#AEB6D4"/><path transform="translate(127.63,142.00) scale(0.00757,-0.00757)" d="M1053 542Q1053 258 928.0 119.0Q803 -20 565 -20Q452 -20 363.0 14.0Q274 48 212.5 118.0Q151 188 118.5 293.5Q86 399 86 542Q86 1102 571 1102Q697 1102 788.5 1067.0Q880 1032 938.5 962.0Q997 892 1025.0 787.0Q1053 682 1053 542ZM864 542Q864 668 844.5 750.0Q825 832 787.5 881.0Q750 930 696.0 949.5Q642 969 574 969Q505 969 449.5 948.5Q394 928 355.0 878.5Q316 829 295.5 747.0Q275 665 275 542Q275 416 297.0 333.5Q319 251 357.5 202.0Q396 153 448.5 133.0Q501 113 563 113Q632 113 688.0 132.5Q744 152 783.0 201.0Q822 250 843.0 333.0Q864 416 864 542Z" fill="#AEB6D4"/><path transform="translate(136.25,142.00) scale(0.00757,-0.00757)" d="M142 0V830Q142 864 141.5 899.5Q141 935 140.0 968.0Q139 1001 138.0 1030.0Q137 1059 136 1082H306Q307 1059 308.5 1029.5Q310 1000 311.5 969.0Q313 938 313.5 909.5Q314 881 314 861H318Q337 923 358.5 968.5Q380 1014 409.0 1043.5Q438 1073 478.0 1087.5Q518 1102 575 1102Q597 1102 617.0 1098.5Q637 1095 648 1092V927Q630 932 606.0 934.5Q582 937 552 937Q490 937 446.5 909.0Q403 881 375.5 831.5Q348 782 335.0 713.5Q322 645 322 564V0Z" fill="#AEB6D4"/><path transform="translate(145.71,142.00) scale(0.00757,-0.00757)" d="M821 174Q771 70 688.5 25.0Q606 -20 484 -20Q279 -20 182.5 118.0Q86 256 86 536Q86 1102 484 1102Q607 1102 689.0 1057.0Q771 1012 821 914H823Q823 924 822.5 945.5Q822 967 821.5 990.5Q821 1014 821.0 1035.0Q821 1056 821 1065V1484H1001V223Q1001 184 1001.5 148.0Q1002 112 1003.0 82.0Q1004 52 1005.0 30.5Q1006 9 1007 0H835Q833 10 831.5 28.5Q830 47 828.5 71.0Q827 95 826.0 121.5Q825 148 825 174ZM275 542Q275 430 289.0 350.0Q303 270 334.0 218.5Q365 167 413.0 143.0Q461 119 530 119Q601 119 655.5 142.0Q710 165 746.5 216.5Q783 268 802.0 351.0Q821 434 821 554Q821 669 802.0 748.5Q783 828 746.0 877.0Q709 926 655.5 947.5Q602 969 532 969Q466 969 418.0 946.0Q370 923 338.0 872.0Q306 821 290.5 739.5Q275 658 275 542Z" fill="#AEB6D4"/><path transform="translate(154.33,142.00) scale(0.00757,-0.00757)" d="M276 503Q276 418 293.5 346.5Q311 275 347.5 223.5Q384 172 441.0 143.5Q498 115 578 115Q695 115 765.5 162.0Q836 209 861 281L1019 236Q1002 191 971.5 145.5Q941 100 890.0 63.5Q839 27 762.5 3.5Q686 -20 578 -20Q338 -20 212.5 123.0Q87 266 87 548Q87 700 125.0 805.5Q163 911 229.0 977.0Q295 1043 383.0 1072.5Q471 1102 571 1102Q707 1102 798.5 1058.0Q890 1014 945.5 936.5Q1001 859 1024.5 754.0Q1048 649 1048 527V503ZM862 641Q847 812 775.0 890.5Q703 969 568 969Q523 969 473.5 954.5Q424 940 382.0 903.0Q340 866 311.0 802.5Q282 739 278 641Z" fill="#AEB6D4"/><path transform="translate(162.96,142.00) scale(0.00757,-0.00757)" d="M825 0V686Q825 765 813.5 818.0Q802 871 776.0 903.5Q750 936 707.5 949.5Q665 963 602 963Q538 963 486.5 940.5Q435 918 398.5 875.5Q362 833 342.0 770.5Q322 708 322 627V0H142V851Q142 885 141.5 922.5Q141 960 140.0 993.5Q139 1027 138.0 1051.0Q137 1075 136 1082H306Q307 1077 308.0 1055.0Q309 1033 310.5 1004.5Q312 976 313.0 946.5Q314 917 314 897H317Q343 944 374.0 982.0Q405 1020 446.0 1046.5Q487 1073 540.0 1087.5Q593 1102 663 1102Q753 1102 818.0 1080.0Q883 1058 925.0 1012.0Q967 966 986.5 893.5Q1006 821 1006 721V0Z" fill="#AEB6D4"/><path transform="translate(171.58,142.00) scale(0.00757,-0.00757)" d="M554 8Q513 -3 470.5 -9.5Q428 -16 372 -16Q156 -16 156 229V951H31V1082H163L216 1324H336V1082H536V951H336V268Q336 190 361.5 158.5Q387 127 450 127Q476 127 500.5 131.0Q525 135 554 141Z" fill="#AEB6D4"/><path transform="translate(175.88,142.00) scale(0.00757,-0.00757)" d="M414 -20Q251 -20 169.0 66.0Q87 152 87 302Q87 409 127.5 477.5Q168 546 233.5 585.0Q299 624 383.0 639.0Q467 654 554 656L797 660V719Q797 786 783.0 833.0Q769 880 740.0 909.0Q711 938 667.5 951.5Q624 965 565 965Q513 965 471.0 957.5Q429 950 398.0 930.5Q367 911 348.0 877.5Q329 844 323 793L135 810Q145 874 173.0 927.5Q201 981 252.5 1020.0Q304 1059 381.5 1080.5Q459 1102 569 1102Q773 1102 876.0 1008.5Q979 915 979 738V272Q979 192 1000.0 151.5Q1021 111 1080 111Q1095 111 1110.0 113.0Q1125 115 1139 118V6Q1105 -2 1071.5 -6.0Q1038 -10 1000 -10Q949 -10 912.5 3.5Q876 17 853.0 44.5Q830 72 818.0 112.5Q806 153 803 207H797Q768 155 733.5 113.0Q699 71 653.0 41.5Q607 12 548.5 -4.0Q490 -20 414 -20ZM455 115Q541 115 605.5 146.5Q670 178 712.5 227.0Q755 276 776.0 334.0Q797 392 797 445V534L600 530Q534 529 474.5 520.5Q415 512 370.0 487.0Q325 462 298.5 417.0Q272 372 272 299Q272 211 319.5 163.0Q367 115 455 115Z" fill="#AEB6D4"/><path transform="translate(184.50,142.00) scale(0.00757,-0.00757)" d="M138 0V1484H318V0Z" fill="#AEB6D4"/><path transform="translate(192.25,142.00) scale(0.00757,-0.00757)" d="M1053 546Q1053 423 1033.0 319.0Q1013 215 966.5 140.0Q920 65 843.5 22.5Q767 -20 655 -20Q539 -20 452.0 24.0Q365 68 319 168H314Q315 166 315.5 150.0Q316 134 316.5 110.0Q317 86 317.5 56.5Q318 27 318 -2V-425H138V861Q138 900 137.5 936.0Q137 972 136.0 1001.5Q135 1031 134.0 1052.0Q133 1073 132 1082H306Q307 1079 308.5 1061.0Q310 1043 311.5 1017.5Q313 992 314.5 963.0Q316 934 316 908H320Q345 960 377.0 996.5Q409 1033 450.0 1056.5Q491 1080 541.5 1090.5Q592 1101 655 1101Q767 1101 843.5 1061.0Q920 1021 966.5 948.5Q1013 876 1033.0 773.5Q1053 671 1053 546ZM864 542Q864 642 852.0 720.0Q840 798 810.5 852.0Q781 906 732.0 934.0Q683 962 609 962Q549 962 496.0 945.0Q443 928 403.5 880.0Q364 832 341.0 747.5Q318 663 318 528Q318 413 337.0 333.5Q356 254 392.5 205.0Q429 156 483.0 134.5Q537 113 607 113Q682 113 731.5 142.0Q781 171 810.5 226.0Q840 281 852.0 360.5Q864 440 864 542Z" fill="#AEB6D4"/><path transform="translate(200.87,142.00) scale(0.00757,-0.00757)" d="M142 0V830Q142 864 141.5 899.5Q141 935 140.0 968.0Q139 1001 138.0 1030.0Q137 1059 136 1082H306Q307 1059 308.5 1029.5Q310 1000 311.5 969.0Q313 938 313.5 909.5Q314 881 314 861H318Q337 923 358.5 968.5Q380 1014 409.0 1043.5Q438 1073 478.0 1087.5Q518 1102 575 1102Q597 1102 617.0 1098.5Q637 1095 648 1092V927Q630 932 606.0 934.5Q582 937 552 937Q490 937 446.5 909.0Q403 881 375.5 831.5Q348 782 335.0 713.5Q322 645 322 564V0Z" fill="#AEB6D4"/><path transform="translate(206.03,142.00) scale(0.00757,-0.00757)" d="M414 -20Q251 -20 169.0 66.0Q87 152 87 302Q87 409 127.5 477.5Q168 546 233.5 585.0Q299 624 383.0 639.0Q467 654 554 656L797 660V719Q797 786 783.0 833.0Q769 880 740.0 909.0Q711 938 667.5 951.5Q624 965 565 965Q513 965 471.0 957.5Q429 950 398.0 930.5Q367 911 348.0 877.5Q329 844 323 793L135 810Q145 874 173.0 927.5Q201 981 252.5 1020.0Q304 1059 381.5 1080.5Q459 1102 569 1102Q773 1102 876.0 1008.5Q979 915 979 738V272Q979 192 1000.0 151.5Q1021 111 1080 111Q1095 111 1110.0 113.0Q1125 115 1139 118V6Q1105 -2 1071.5 -6.0Q1038 -10 1000 -10Q949 -10 912.5 3.5Q876 17 853.0 44.5Q830 72 818.0 112.5Q806 153 803 207H797Q768 155 733.5 113.0Q699 71 653.0 41.5Q607 12 548.5 -4.0Q490 -20 414 -20ZM455 115Q541 115 605.5 146.5Q670 178 712.5 227.0Q755 276 776.0 334.0Q797 392 797 445V534L600 530Q534 529 474.5 520.5Q415 512 370.0 487.0Q325 462 298.5 417.0Q272 372 272 299Q272 211 319.5 163.0Q367 115 455 115Z" fill="#AEB6D4"/><path transform="translate(214.65,142.00) scale(0.00757,-0.00757)" d="M275 546Q275 453 288.5 375.0Q302 297 334.0 240.5Q366 184 418.5 153.0Q471 122 548 122Q644 122 708.5 174.0Q773 226 788 334L970 322Q961 255 931.0 193.0Q901 131 849.5 84.0Q798 37 724.0 8.5Q650 -20 553 -20Q426 -20 337.0 23.0Q248 66 192.5 141.5Q137 217 112.0 319.5Q87 422 87 542Q87 651 105.0 734.5Q123 818 155.5 880.5Q188 943 232.0 985.5Q276 1028 327.5 1053.5Q379 1079 436.0 1090.5Q493 1102 551 1102Q642 1102 713.0 1077.0Q784 1052 835.5 1008.5Q887 965 919.0 906.0Q951 847 964 779L779 765Q765 855 708.0 908.0Q651 961 546 961Q469 961 417.5 935.5Q366 910 334.0 858.5Q302 807 288.5 729.0Q275 651 275 546Z" fill="#AEB6D4"/><path transform="translate(222.40,142.00) scale(0.00757,-0.00757)" d="M554 8Q513 -3 470.5 -9.5Q428 -16 372 -16Q156 -16 156 229V951H31V1082H163L216 1324H336V1082H536V951H336V268Q336 190 361.5 158.5Q387 127 450 127Q476 127 500.5 131.0Q525 135 554 141Z" fill="#AEB6D4"/><path transform="translate(226.71,142.00) scale(0.00757,-0.00757)" d="M137 1312V1484H317V1312ZM137 0V1082H317V0Z" fill="#AEB6D4"/><path transform="translate(230.15,142.00) scale(0.00757,-0.00757)" d="M275 546Q275 453 288.5 375.0Q302 297 334.0 240.5Q366 184 418.5 153.0Q471 122 548 122Q644 122 708.5 174.0Q773 226 788 334L970 322Q961 255 931.0 193.0Q901 131 849.5 84.0Q798 37 724.0 8.5Q650 -20 553 -20Q426 -20 337.0 23.0Q248 66 192.5 141.5Q137 217 112.0 319.5Q87 422 87 542Q87 651 105.0 734.5Q123 818 155.5 880.5Q188 943 232.0 985.5Q276 1028 327.5 1053.5Q379 1079 436.0 1090.5Q493 1102 551 1102Q642 1102 713.0 1077.0Q784 1052 835.5 1008.5Q887 965 919.0 906.0Q951 847 964 779L779 765Q765 855 708.0 908.0Q651 961 546 961Q469 961 417.5 935.5Q366 910 334.0 858.5Q302 807 288.5 729.0Q275 651 275 546Z" fill="#AEB6D4"/><path transform="translate(237.90,142.00) scale(0.00757,-0.00757)" d="M276 503Q276 418 293.5 346.5Q311 275 347.5 223.5Q384 172 441.0 143.5Q498 115 578 115Q695 115 765.5 162.0Q836 209 861 281L1019 236Q1002 191 971.5 145.5Q941 100 890.0 63.5Q839 27 762.5 3.5Q686 -20 578 -20Q338 -20 212.5 123.0Q87 266 87 548Q87 700 125.0 805.5Q163 911 229.0 977.0Q295 1043 383.0 1072.5Q471 1102 571 1102Q707 1102 798.5 1058.0Q890 1014 945.5 936.5Q1001 859 1024.5 754.0Q1048 649 1048 527V503ZM862 641Q847 812 775.0 890.5Q703 969 568 969Q523 969 473.5 954.5Q424 940 382.0 903.0Q340 866 311.0 802.5Q282 739 278 641Z" fill="#AEB6D4"/><path transform="translate(246.53,142.00) scale(0.00757,-0.00757)" d="M950 299Q950 223 920.5 163.5Q891 104 835.0 63.5Q779 23 697.5 1.5Q616 -20 511 -20Q417 -20 341.5 -5.5Q266 9 209.0 41.0Q152 73 113.5 125.5Q75 178 57 254L216 285Q239 198 311.0 157.5Q383 117 511 117Q569 117 617.5 125.0Q666 133 701.0 152.5Q736 172 755.5 204.5Q775 237 775 285Q775 334 752.0 365.5Q729 397 688.0 418.0Q647 439 588.5 454.5Q530 470 460 489Q395 506 331.0 527.0Q267 548 215.5 582.5Q164 617 132.0 668.0Q100 719 100 796Q100 944 205.5 1021.5Q311 1099 513 1099Q692 1099 797.5 1036.0Q903 973 931 834L769 814Q760 856 736.0 884.5Q712 913 678.0 930.5Q644 948 601.5 955.5Q559 963 513 963Q391 963 333.0 926.0Q275 889 275 814Q275 770 296.5 741.5Q318 713 356.5 693.5Q395 674 449.0 659.5Q503 645 568 629Q611 618 656.0 605.5Q701 593 743.5 575.5Q786 558 823.5 534.5Q861 511 889.0 478.0Q917 445 933.5 401.0Q950 357 950 299Z" fill="#AEB6D4"/><rect x="32" y="160" width="14" height="2" fill="#5965FF"/><path transform="translate(54.00,166.00) scale(0.00659,-0.00659)" d="M624 -20Q495 -20 398.5 20.0Q302 60 238.0 133.0Q174 206 142.0 308.5Q110 411 110 535Q110 670 145.0 775.5Q180 881 246.0 953.5Q312 1026 408.5 1064.0Q505 1102 628 1102Q733 1102 814.5 1074.0Q896 1046 955.0 997.5Q1014 949 1050.5 883.0Q1087 817 1101 741L818 727Q806 810 758.0 859.5Q710 909 622 909Q509 909 457.0 816.0Q405 723 405 546Q405 172 626 172Q706 172 760.0 222.5Q814 273 827 373L1109 360Q1099 285 1063.5 216.5Q1028 148 967.5 95.5Q907 43 821.0 11.5Q735 -20 624 -20Z" fill="#5965FF"/><path transform="translate(62.70,166.00) scale(0.00659,-0.00659)" d="M416 1082V475Q416 412 426.0 359.5Q436 307 457.0 269.5Q478 232 510.5 211.0Q543 190 588 190Q631 190 669.0 212.5Q707 235 735.0 276.5Q763 318 779.0 375.5Q795 433 795 502V1082H1076V242Q1076 208 1076.5 170.5Q1077 133 1078.5 99.5Q1080 66 1081.5 39.5Q1083 13 1084 0H816Q815 12 812.5 38.5Q810 65 808.5 97.0Q807 129 805.5 161.0Q804 193 804 215H799Q743 92 659.0 36.0Q575 -20 471 -20Q377 -20 313.0 12.0Q249 44 209.5 99.5Q170 155 152.5 231.0Q135 307 135 395V1082Z" fill="#5965FF"/><path transform="translate(71.40,166.00) scale(0.00659,-0.00659)" d="M1081 848Q1034 856 982.5 861.5Q931 867 869 867Q785 867 721.5 833.0Q658 799 615.5 740.5Q573 682 551.5 604.0Q530 526 530 438V0H250V701Q250 757 244.0 815.0Q238 873 230.0 924.5Q222 976 213.0 1017.0Q204 1058 198 1082H469Q475 1060 482.0 1032.5Q489 1005 495.0 974.5Q501 944 506.5 913.0Q512 882 515 854H519Q540 911 568.5 957.0Q597 1003 639.0 1035.0Q681 1067 739.0 1084.5Q797 1102 875 1102Q931 1102 985.0 1097.0Q1039 1092 1081 1085Z" fill="#5965FF"/><path transform="translate(80.10,166.00) scale(0.00659,-0.00659)" d="M439 -20Q361 -20 299.5 1.5Q238 23 195.0 64.5Q152 106 129.0 167.0Q106 228 106 306Q106 402 138.0 467.5Q170 533 226.0 573.5Q282 614 358.5 632.5Q435 651 523 652L746 656V711Q746 770 735.5 809.5Q725 849 706.0 874.0Q687 899 659.5 909.5Q632 920 598 920Q567 920 541.0 913.0Q515 906 496.0 888.5Q477 871 465.0 841.5Q453 812 448 767L155 781Q167 852 197.5 910.5Q228 969 282.5 1012.0Q337 1055 418.0 1078.5Q499 1102 610 1102Q812 1102 919.5 1003.0Q1027 904 1027 712V320Q1027 282 1030.5 252.0Q1034 222 1043.5 201.5Q1053 181 1070.5 170.5Q1088 160 1116 160Q1148 160 1178 166V14Q1153 8 1133.0 3.0Q1113 -2 1093.0 -5.0Q1073 -8 1050.5 -10.0Q1028 -12 998 -12Q892 -12 841.5 40.0Q791 92 781 193H775Q747 143 714.5 103.5Q682 64 641.5 36.5Q601 9 551.0 -5.5Q501 -20 439 -20ZM746 501 612 499Q567 498 528.0 492.5Q489 487 460.5 469.5Q432 452 415.5 418.5Q399 385 399 328Q399 251 429.5 213.5Q460 176 519 176Q573 176 615.0 199.0Q657 222 686.5 259.5Q716 297 731.0 346.0Q746 395 746 446Z" fill="#5965FF"/><path transform="translate(88.81,166.00) scale(0.00659,-0.00659)" d="M817 0Q815 8 812.5 28.5Q810 49 807.5 75.0Q805 101 803.5 128.0Q802 155 802 176H798Q745 69 667.0 24.5Q589 -20 482 -20Q387 -20 315.0 22.0Q243 64 194.5 138.5Q146 213 121.5 315.5Q97 418 97 539Q97 662 121.0 765.0Q145 868 194.0 942.5Q243 1017 317.5 1058.5Q392 1100 493 1100Q538 1100 583.0 1090.0Q628 1080 668.5 1057.5Q709 1035 742.5 998.5Q776 962 800 909H802Q802 919 801.5 938.5Q801 958 801.0 983.0Q801 1008 800.5 1035.0Q800 1062 800 1087V1484H1081V236Q1081 157 1084.0 95.5Q1087 34 1089 0ZM804 546Q804 653 784.5 723.5Q765 794 734.0 835.0Q703 876 666.0 892.5Q629 909 593 909Q547 909 509.5 888.0Q472 867 445.5 822.5Q419 778 404.5 708.0Q390 638 390 539Q390 355 442.5 263.5Q495 172 591 172Q626 172 663.5 190.0Q701 208 732.5 251.0Q764 294 784.0 366.0Q804 438 804 546Z" fill="#5965FF"/><path transform="translate(97.51,166.00) scale(0.00659,-0.00659)" d="M626 -20Q509 -20 412.0 14.5Q315 49 246.0 119.5Q177 190 138.5 296.5Q100 403 100 546Q100 701 144.5 807.0Q189 913 263.0 978.5Q337 1044 432.5 1073.0Q528 1102 630 1102Q758 1102 851.5 1057.5Q945 1013 1007.0 933.0Q1069 853 1099.0 741.5Q1129 630 1129 495V487H395Q395 419 410.5 360.5Q426 302 456.5 259.5Q487 217 533.0 192.5Q579 168 640 168Q714 168 771.0 199.5Q828 231 848 297L1113 274Q1095 228 1059.5 176.0Q1024 124 966.0 80.5Q908 37 824.5 8.5Q741 -20 626 -20ZM626 925Q583 925 542.5 910.5Q502 896 470.5 864.5Q439 833 419.0 783.0Q399 733 397 663H857Q853 728 833.5 777.0Q814 826 783.5 859.0Q753 892 712.5 908.5Q672 925 626 925Z" fill="#5965FF"/><path transform="translate(106.21,166.00) scale(0.00659,-0.00659)" d="M824 0V619Q824 760 785.5 826.0Q747 892 653 892Q602 892 560.0 869.5Q518 847 488.0 805.5Q458 764 441.0 706.5Q424 649 424 580V0H143V840Q143 875 142.5 912.0Q142 949 140.5 982.5Q139 1016 138.0 1042.5Q137 1069 135 1082H403Q405 1070 407.0 1043.5Q409 1017 411.0 985.0Q413 953 414.5 921.0Q416 889 416 867H420Q477 991 563.0 1047.0Q649 1103 768 1103Q856 1103 919.5 1074.5Q983 1046 1024.0 992.5Q1065 939 1084.5 862.0Q1104 785 1104 687V0Z" fill="#5965FF"/><path transform="translate(114.91,166.00) scale(0.00659,-0.00659)" d="M328 892H161V1082H342L430 1364H606V1082H991V892H606V362Q606 326 608.5 293.0Q611 260 627.5 234.5Q644 209 679.5 193.5Q715 178 780 178Q844 178 908.0 185.0Q972 192 1035 205V19Q998 13 961.5 7.0Q925 1 886.5 -3.5Q848 -8 805.0 -10.5Q762 -13 711 -13Q625 -13 563.0 1.5Q501 16 458.5 41.0Q416 66 389.5 100.0Q363 134 349.0 172.5Q335 211 330.5 253.0Q326 295 326 336Z" fill="#5965FF"/><path transform="translate(123.61,166.00) scale(0.00659,-0.00659)" d="M439 -20Q361 -20 299.5 1.5Q238 23 195.0 64.5Q152 106 129.0 167.0Q106 228 106 306Q106 402 138.0 467.5Q170 533 226.0 573.5Q282 614 358.5 632.5Q435 651 523 652L746 656V711Q746 770 735.5 809.5Q725 849 706.0 874.0Q687 899 659.5 909.5Q632 920 598 920Q567 920 541.0 913.0Q515 906 496.0 888.5Q477 871 465.0 841.5Q453 812 448 767L155 781Q167 852 197.5 910.5Q228 969 282.5 1012.0Q337 1055 418.0 1078.5Q499 1102 610 1102Q812 1102 919.5 1003.0Q1027 904 1027 712V320Q1027 282 1030.5 252.0Q1034 222 1043.5 201.5Q1053 181 1070.5 170.5Q1088 160 1116 160Q1148 160 1178 166V14Q1153 8 1133.0 3.0Q1113 -2 1093.0 -5.0Q1073 -8 1050.5 -10.0Q1028 -12 998 -12Q892 -12 841.5 40.0Q791 92 781 193H775Q747 143 714.5 103.5Q682 64 641.5 36.5Q601 9 551.0 -5.5Q501 -20 439 -20ZM746 501 612 499Q567 498 528.0 492.5Q489 487 460.5 469.5Q432 452 415.5 418.5Q399 385 399 328Q399 251 429.5 213.5Q460 176 519 176Q573 176 615.0 199.0Q657 222 686.5 259.5Q716 297 731.0 346.0Q746 395 746 446Z" fill="#5965FF"/><path transform="translate(132.31,166.00) scale(0.00659,-0.00659)" d="M794 190H1147V0H118V190H513V1294H223V1484H794Z" fill="#5965FF"/><path transform="translate(141.01,166.00) scale(0.00659,-0.00659)" d="M470 0V305H759V0Z" fill="#5965FF"/><path transform="translate(149.71,166.00) scale(0.00659,-0.00659)" d="M624 -20Q495 -20 398.5 20.0Q302 60 238.0 133.0Q174 206 142.0 308.5Q110 411 110 535Q110 670 145.0 775.5Q180 881 246.0 953.5Q312 1026 408.5 1064.0Q505 1102 628 1102Q733 1102 814.5 1074.0Q896 1046 955.0 997.5Q1014 949 1050.5 883.0Q1087 817 1101 741L818 727Q806 810 758.0 859.5Q710 909 622 909Q509 909 457.0 816.0Q405 723 405 546Q405 172 626 172Q706 172 760.0 222.5Q814 273 827 373L1109 360Q1099 285 1063.5 216.5Q1028 148 967.5 95.5Q907 43 821.0 11.5Q735 -20 624 -20Z" fill="#5965FF"/><path transform="translate(158.42,166.00) scale(0.00659,-0.00659)" d="M1137 542Q1137 418 1106.0 315.0Q1075 212 1010.5 137.5Q946 63 846.5 21.5Q747 -20 610 -20Q478 -20 381.0 21.0Q284 62 219.5 136.0Q155 210 123.5 313.5Q92 417 92 542Q92 663 122.0 765.5Q152 868 215.5 943.0Q279 1018 378.5 1060.0Q478 1102 616 1102Q762 1102 861.5 1060.0Q961 1018 1022.5 943.5Q1084 869 1110.5 766.5Q1137 664 1137 542ZM843 542Q843 638 830.5 707.5Q818 777 791.5 822.0Q765 867 722.5 888.0Q680 909 620 909Q496 909 441.5 821.0Q387 733 387 542Q387 349 442.5 260.5Q498 172 607 172Q669 172 714.0 193.5Q759 215 787.5 260.0Q816 305 829.5 375.0Q843 445 843 542Z" fill="#5965FF"/></svg>